<svg xmlns="http://www.w3.org/2000/svg" viewBox="0 0 522.44 522.31"><defs><style>.cls-1{opacity:0.85;}.cls-2{fill:#dc1516;}</style></defs><title>Recurso 9</title><g id="Capa_2" data-name="Capa 2"><g id="Capa_1-2" data-name="Capa 1"><g class="cls-1"><path class="cls-2" d="M261.5,0c146-.29,262.93,120.05,260.92,263.14,0,139.61-114.75,260.51-263.76,259.16C118.2,521,.84,407.75,0,260.78,1.26,111.63,121.93-.65,261.5,0Zm0,38C140.16,37.66,39.24,135.62,38.28,259.27c-1,125.66,100.73,224.52,222.17,225,123.23.48,224.07-99.4,224.1-223.08S384.11,37.8,261.53,38Z"/><path class="cls-2" d="M49.21,261.14C49.5,142.49,145.69,48.87,261.55,49c116.93.1,212.05,95.13,212,212.24-.05,117.3-95.59,212.45-212.9,212.06C145.32,472.89,49.53,379.56,49.21,261.14Zm212,143.43h132a11.54,11.54,0,0,0,11.65-11.77c-.07-4.4,0-8.8,0-13.2,0-2.08,0-2.1-2.12-2.1h-21.6a12.81,12.81,0,0,1-2.15-.07,2.83,2.83,0,0,1,.17-5.64,19.46,19.46,0,0,1,2.16,0H402.7c2.07,0,2.1,0,2.1-2.14q0-9.6,0-19.2c0-2.13,0-2.14-2.28-2.14H381.4a12,12,0,0,1-2.62-.18,2.6,2.6,0,0,1-2.37-2.83,2.76,2.76,0,0,1,2.78-2.73c.72-.07,1.44,0,2.16,0h21.36c2.1,0,2.12,0,2.12-2.07,0-6.4,0-12.8,0-19.2,0-2.19,0-2.21-2.25-2.21H380.75a9.6,9.6,0,0,1-2.15-.13,2.67,2.67,0,0,1-2.16-3,2.72,2.72,0,0,1,2.41-2.57,12.29,12.29,0,0,1,1.92-.05h22.08c1.95,0,2,0,2-1.95,0-6.48,0-13,0-19.44,0-2.14,0-2.15-2.28-2.15H381a11.83,11.83,0,0,1-2.15-.09,2.62,2.62,0,0,1-2.38-2.58A2.69,2.69,0,0,1,378.7,284a11.12,11.12,0,0,1,2.38-.14h21.6c2.13,0,2.15,0,2.15-2.05q0-9.72,0-19.44c0-1.93,0-1.95-2-2H381a11.86,11.86,0,0,1-2.39-.12,2.72,2.72,0,0,1-2.18-2.77,2.57,2.57,0,0,1,2-2.66,7,7,0,0,1,2.37-.2h21.84c2.15,0,2.18,0,2.18-2q0-9.84,0-19.68c0-1.79,0-1.82-1.87-1.83H380.85a13.64,13.64,0,0,1-1.92-.05,2.69,2.69,0,0,1-2.5-2.72,2.66,2.66,0,0,1,2.34-2.87,17.1,17.1,0,0,1,2.87-.12H403c1.8,0,1.83,0,1.83-1.86,0-6.4,0-12.8,0-19.2,0-2.37,0-2.38-2.32-2.38H381.16a14.62,14.62,0,0,1-2.39-.1,2.69,2.69,0,0,1-2.33-2.65,2.66,2.66,0,0,1,2-2.87,7.91,7.91,0,0,1,2.61-.2h21.84c1.83,0,1.86,0,1.87-1.86,0-6.56,0-13.12,0-19.68,0-.24,0-.48,0-.72.06-1-.45-1.27-1.32-1.22-.56,0-1.12,0-1.68,0H380.68a6,6,0,0,1-2.59-.32,2.64,2.64,0,0,1-1.71-2.63,2.54,2.54,0,0,1,1.68-2.39,6.34,6.34,0,0,1,2.82-.42h20.88a15.68,15.68,0,0,1,1.68,0c1.23.14,1.54-.5,1.45-1.57,0-.55,0-1.12,0-1.68V134.79c0-2.16.06-4.33-.06-6.48a11.26,11.26,0,0,0-7.73-10c-5-1.55-9.24-.35-12.92,3.36-9.07,9.15-18.2,18.23-27.31,27.34Q327.44,178.45,298,207.9q-31,31-62,61.92Q211.87,294,187.73,318.23q-32.49,32.5-65,65a28,28,0,0,0-2.3,2.45,11.64,11.64,0,0,0,6,18.49,18.83,18.83,0,0,0,5.24.42Z"/><path class="cls-2" d="M349.09,300.08V345.9c0,.8,0,1.6,0,2.4a6.13,6.13,0,0,1-6.24,6.26c-4.79.1-9.59,0-14.39,0H253.84l-7.2-.06a5.73,5.73,0,0,1-5.68-3.63c-1-2.33-.24-4.37,1.36-6.18.37-.41.78-.8,1.18-1.19q40.61-40.65,81.23-81.29L338,249c.45-.45.92-.89,1.38-1.33a5.24,5.24,0,0,1,6.18-1.08,5.52,5.52,0,0,1,3.52,5.25c0,2.72,0,5.43,0,8.15v40.07Z"/></g></g></g></svg>