<svg id="Capa_1" data-name="Capa 1" xmlns="http://www.w3.org/2000/svg" viewBox="0 0 623.88 597.61"><defs><style>.cls-1{opacity:0.85;}.cls-2{fill:#db1515;}</style></defs><title>ICONOS GOOGLE</title><g class="cls-1"><path class="cls-2" d="M304.56,571.53c-.22-.82-.92-.46-1.39-.49A261.57,261.57,0,0,1,66.8,376.25a250.94,250.94,0,0,1-7.14-40.31,239.83,239.83,0,0,1-1.4-26.33c1-64.38,21.8-121.44,64-170.29,32.55-37.72,72.87-63.87,120.47-78.7a263.73,263.73,0,0,1,78.2-11.55c56.66.63,108.09,17.33,153.7,51,44.18,32.64,75,75.22,92.77,127.24a259.54,259.54,0,0,1,13,97.08,252.43,252.43,0,0,1-26.66,101.75q-39.51,78.72-118.3,118.3a259.69,259.69,0,0,1-101.76,26.65c-.44,0-1-.17-1.25.41ZM542.68,310.26C543,188,443.61,87.27,319.78,87.17c-122.32-.1-222.34,98.29-223.31,221.28a222.89,222.89,0,0,0,221.5,225C443.93,534.27,543.07,432.08,542.68,310.26Z"/><path class="cls-2" d="M531.67,310.6c.24,115.5-93.93,212.63-213.63,211.84a211.89,211.89,0,0,1-210.58-214c.94-117.21,96.42-210.31,212.12-210.29C437.35,98.17,532.16,194.15,531.67,310.6Zm-408.78,0a2.84,2.84,0,0,0,1.71.84q65.76,17,131.52,34.05c5,1.3,10.13,2.32,15,4.27,6.71,2.72,11,7.47,12.48,14.66.59,3,1,6,1.65,8.95,1.69,7.9,4.44,15.51,6.65,23.26q11.21,39.41,22.27,78.87c2.64,9.38,5.27,18.76,7.94,28.14.17.6,0,1.67,1.12,1.53.9-.12,2-.18,2.14-1.49a6.85,6.85,0,0,1,.28-.92q12-45,24-90.05c4.36-16.28,8.8-32.54,13.19-48.81a23.55,23.55,0,0,1,4-8.14,9.42,9.42,0,0,1,5-3.47Q404,342.84,436.4,334c26.2-7.17,52.29-14.71,78.19-22.88.53-.17,1.35,0,1.53-1l-5-1.66c-39.25-12.93-79-23.94-119.09-34.06-5.18-1.31-10.44-2.35-15.49-4.19a20.92,20.92,0,0,1-13.07-12.83c-.53-1.42-1-2.87-1.39-4.33-4-14.73-7.8-29.5-11.86-44.2C342.88,182.2,335.39,155.6,328,129c-1.24-4.43-2.74-8.78-4.4-13.12a3.8,3.8,0,0,0-1,2.24q-6.82,21.6-13.08,43.37c-9,31.16-17.47,62.46-26.05,93.73a24.91,24.91,0,0,1-3.82,8.21,12,12,0,0,1-6.87,4.9c-4.33,1.12-8.58,2.54-12.89,3.72-18.56,5.09-37.15,10.11-55.71,15.21-18.95,5.2-37.81,10.73-56.67,16.23C139.29,305.84,131.16,308.18,122.88,310.57Zm270.19-47.69c3,.53,5.58-1,7.67-3.35A110,110,0,0,0,414,241.65c8.48-15,16.83-30.15,25.23-45.23.54-1,1.06-2,1.61-2.94.45-.79.16-1.29-.51-1.81-1.1-.85-1.93-.18-2.83.34L388.92,220.1c-6.37,3.68-12.72,7.38-19.1,11-1,.56-1.76,1-1.22,2.38,1.64,4.2,2.11,8.64,2.77,13.06,1.1,7.32,5.29,12.37,12.38,14.81A27.48,27.48,0,0,0,393.07,262.89ZM249,355.94h-1.2c-3.05,0-3,0-4.57,2.7l-29.83,53.13c-2.47,4.39-4.91,8.8-7.39,13.18-.47.84-.68,1.51.15,2.33a1.7,1.7,0,0,0,2.52.23c.45-.32,1-.57,1.45-.85L252,402.39c7.68-4.45,15.35-8.92,23.05-13.33a2.43,2.43,0,0,0,1.56-2.61,60.79,60.79,0,0,0-2.32-13.19c-2.52-7.59-7.25-13.08-15-15.65A33,33,0,0,0,249,355.94Zm146.24,1.2a67.62,67.62,0,0,0-11.75,2.05,15.78,15.78,0,0,0-11.29,11.07c-1.71,5.37-2.35,10.92-3,16.47a1.5,1.5,0,0,0,.9,1.73c.43.22.84.46,1.26.7l47.22,26.64q10,5.66,20.06,11.31c.9.51,1.62.82,2.54-.11s.36-1.55-.08-2.31L436,416c-10.21-17.74-20.45-35.47-30.88-53.08C402.82,358.94,399.42,357.56,395.21,357.14ZM276.83,236.53c-.57-3.25-1.85-6-4.93-7.74-17.49-10.13-35.12-20-52.75-29.89-3.9-2.19-7.8-4.39-11.71-6.56a1.87,1.87,0,0,0-2.77,1.13c-.13.78.45,1.33.8,1.94l27.81,48.15q5.46,9.44,10.93,18.87c1.09,1.89,1.1,1.85,3.33,1.4,2.58-.51,5.16-1.1,7.77-1.42a18.92,18.92,0,0,0,15.23-10.62,129.48,129.48,0,0,0,5.92-13.35A5.75,5.75,0,0,0,276.83,236.53Z"/><path class="cls-2" d="M321.91,157.88V161q0,71.27,0,142.53c0,1.34-.19,2.61,1.41,3.45,2.2,1.15,2.14,1.29,4.17-.21,6.75-5,13.72-9.69,20.21-15,1.85-1.52,3.64-3.13,5.45-4.7,3.72-3.23,7.87-5.45,12.93-5.59a25.53,25.53,0,0,1,6.89.68c27.05,6.71,54.22,13,81,20.72,7,2,13.91,4.24,20.85,6.39.34.1.81.07,1.06.73H328.82a3.48,3.48,0,0,0-3.71,3.15,1.89,1.89,0,0,0,.56,1.51c2.79,3.81,5.53,7.65,8.38,11.41a42.47,42.47,0,0,0,6.45,6.42,32.51,32.51,0,0,1,8.3,10.44,27.89,27.89,0,0,1,2.09,17.32c-1.23,7.25-3.51,14.26-5.28,21.39-4.58,18.45-8.64,37-12.73,55.58-1.82,8.27-3.64,16.53-5.52,24.79-.16.7.08,1.8-.94,2a8.05,8.05,0,0,1-3.33-.12c-.47-.1-.55-.56-.57-1,0-.8,0-1.6,0-2.4q0-71,0-142.05c0-3-.85-4-3.8-4.67-1.06-.24-1.65.46-2.31,1-5.08,3.89-10.12,7.83-15.22,11.69-3.57,2.71-7.2,5.32-10.81,8a27.91,27.91,0,0,1-4.76,2.78,10.88,10.88,0,0,1-7.23.74c-17-3.78-34-7.44-51-11.22-17.69-3.94-35.36-8-53.05-11.95a4.36,4.36,0,0,1-3.7-3.35,1.75,1.75,0,0,1,.16-.39.42.42,0,0,1,.21-.1,2.79,2.79,0,0,1,.47-.08c.32,0,.64,0,1,0l147.33,0a.82.82,0,0,0,.23,0l.32-.14c0-.92-.65-1.53-1.14-2.2-5.07-7-10.17-14-15.21-21-2-2.79-3.87-5.68-5.78-8.54a28.84,28.84,0,0,1-3-6,14.59,14.59,0,0,1-.59-8.45c4.95-22.54,10-45.07,15.79-67.41q4.89-18.79,10.49-37.37c.2-.66.42-1.31.63-2Z"/></g></svg>