<svg id="Capa_1" data-name="Capa 1" xmlns="http://www.w3.org/2000/svg" viewBox="0 0 611.88 597.61"><defs><style>.cls-1{opacity:0.85;}.cls-2{fill:#dc1415;}</style></defs><title>ICONOS GOOGLE</title><g class="cls-1"><path class="cls-2" d="M320.79,49.66a6.86,6.86,0,0,0,2.82.39c62.61,3.48,117.33,26.12,163.65,68.36,38.22,34.85,63.64,77.61,76.68,127.68a257.87,257.87,0,0,1,7,41.06,249.65,249.65,0,0,1,.65,37.87c-3.64,62-26.27,116.32-68.15,162.25-34.78,38.15-77.44,63.61-127.42,76.67a256.11,256.11,0,0,1-41,7.1,253.54,253.54,0,0,1-38.58.73c-53.61-3.17-102-20.85-144.55-53.6-42.37-32.59-72-74.41-89.06-125.11a251.05,251.05,0,0,1-11.42-51.86,245.05,245.05,0,0,1-1.88-32.06c1.11-60.45,19.83-114.76,57.89-161.92,36.64-45.4,83.5-75.23,140-89.73a240.68,240.68,0,0,1,43.5-7l7.9-.51a.93.93,0,0,0,.82-.36Zm-10,484.39c122.61.23,221.78-98.94,223.2-220.4,1.44-123.2-97.48-225.43-222.36-225.83A222.89,222.89,0,0,0,87.72,309.22C86.84,434.9,188.69,534.33,310.8,534.05Z"/><path class="cls-2" d="M311,98.74c119.51.43,213.29,97.93,212,214.54-1.23,115.4-95.56,210-212.61,209.82-115.6-.17-212.8-94.26-211.66-214.35C99.83,193,193.65,99.07,311,98.74Zm158.51,95c-.17-.67-.75-1-1.2-1.44Q447.63,172.6,427,152.88q-4.86-4.64-9.72-9.27c-1.22-1.16-1.24-1.14-2.46.07-.23.23-.44.47-.65.7q-15.53,16.84-31.07,33.69l-64.64,70-40,43.36q-30.62,33.13-61.24,66.24Q185.56,391.81,154,426c-2.27,2.46-2.32,1.88.08,4.18q20.72,19.82,41.48,39.6c3,2.87,6.05,5.71,9,8.63.92.91,1.56.89,2.29-.1a11.17,11.17,0,0,1,.81-.88l21.48-23.28,58.94-63.79q19.3-20.88,38.61-41.74Q358,314.79,389.2,280.94l65.13-70.49q7.08-7.67,14.14-15.36A3.25,3.25,0,0,0,469.46,193.77Z"/><path class="cls-2" d="M434.57,196.55a8.61,8.61,0,0,1,8.15-8.41,8.2,8.2,0,0,1,8.08,8.1,8.64,8.64,0,0,1-8,8.32A8.34,8.34,0,0,1,434.57,196.55Z"/><path class="cls-2" d="M243.93,379.24a2,2,0,0,1-.23.43c-1.2,1.28-2.4,2.57-3.62,3.83a.71.71,0,0,1-1.07,0c-.36-.32-.72-.64-1.06-1l-18.09-17.16-.86-.84a.87.87,0,0,1,0-1.43c.84-.86,1.64-1.75,2.47-2.62,1.55-1.63,1.57-1.63,3.14-.14q5.81,5.54,11.6,11.11,3.46,3.32,6.9,6.66C243.41,378.48,243.86,378.72,243.93,379.24Z"/><path class="cls-2" d="M310.26,265.08c.8.08,1.16.65,1.61,1.07l12.85,12.25c1.79,1.71,3.61,3.4,5.4,5.12,1.56,1.5,1.55,1.51,0,3.16-.6.64-1.2,1.28-1.82,1.91-1.34,1.37-1.37,1.39-2.82,0-2.78-2.65-5.51-5.34-8.28-8-3.28-3.16-6.59-6.3-9.87-9.47-1.49-1.44-1.47-1.47-.06-3,.75-.83,1.52-1.64,2.3-2.45A6.81,6.81,0,0,1,310.26,265.08Z"/><path class="cls-2" d="M210.06,415.38c-.29,0-.59-.54-1-.91q-8.08-7.66-16.15-15.33c-.17-.16-.35-.33-.51-.51-1-1.11-2.39-1.85-3-3.29a29.65,29.65,0,0,1,3.85-4.23c.67-.66,1.15,0,1.59.45q3.22,3,6.42,6.1,6.15,5.87,12.28,11.75c1.4,1.34,1.38,1.37.08,2.81-.8.89-1.63,1.75-2.45,2.62A1.34,1.34,0,0,1,210.06,415.38Z"/><path class="cls-2" d="M272.84,348.1c-1.17,1.26-2.34,2.45-3.41,3.72-.83,1-1.47.85-2.33,0-2.73-2.68-5.53-5.29-8.3-7.93q-5.11-4.87-10.22-9.74c-1.48-1.42-1.47-1.43-.07-3,.48-.53,1-1.05,1.47-1.57,2.08-2.22,1.69-1.86,3.46-.19,6.21,5.85,12.34,11.8,18.49,17.71C272.21,347.38,272.46,347.69,272.84,348.1Z"/><path class="cls-2" d="M207.92,375.76c.22.2.53.46.81.73q9.45,9,18.88,18.06c1.2,1.15,1.17,1.18,0,2.45-.69.78-1.38,1.56-2.08,2.32-1.26,1.37-1.28,1.37-2.58.15q-2.19-2-4.35-4.12-7.11-6.79-14.21-13.58c-1.38-1.33-1.37-1.35,0-2.79.86-.94,1.75-1.87,2.61-2.81A1,1,0,0,1,207.92,375.76Z"/><path class="cls-2" d="M301.89,316.48a1.77,1.77,0,0,1-.22.45c-1.2,1.28-2.38,2.57-3.61,3.82-.56.57-1,.07-1.41-.31-1.51-1.42-3-2.83-4.53-4.26q-7.19-6.85-14.36-13.72c-1.41-1.35-1.42-1.41-.08-2.82,1-1.09,1.86-2.91,3.23-3s2.3,1.73,3.38,2.75q8.26,7.8,16.45,15.68C301.18,315.48,301.8,315.79,301.89,316.48Z"/><path class="cls-2" d="M164.39,422.48a2.52,2.52,0,0,1,1.43,1l7.82,7.43q5.3,5,10.59,10.08c1.46,1.4,1.47,1.44.22,2.83-1,1.12-2,2.83-3.19,3.09-1.39.29-2.31-1.67-3.39-2.68q-8.21-7.71-16.34-15.52c-1.61-1.53-1.59-1.56-.11-3.21q1.12-1.25,2.29-2.45A5.13,5.13,0,0,1,164.39,422.48Z"/><path class="cls-2" d="M345.2,270a1.87,1.87,0,0,1-.21.45c-1.17,1.31-2.34,2.63-3.53,3.92-.57.62-1,.14-1.39-.25l-5.9-5.63q-6.49-6.22-13-12.45c-1.43-1.37-1.46-1.44-.15-2.77,1.1-1.12,1.87-2.58,3.35-3.31,1.13,1,2.29,2,3.39,3q8.17,7.77,16.3,15.57C344.52,269,345.16,269.28,345.2,270Z"/><path class="cls-2" d="M236.39,344.37c2.89,2.73,5.62,5.31,8.34,7.89q5.82,5.54,11.62,11.09c1.22,1.17,1.22,1.23.1,2.44s-1.9,3.11-3.32,3.27-2.45-1.79-3.59-2.85c-5.54-5.19-11-10.47-16.47-15.72-1.23-1.19-1.22-1.22-.12-2.44S235.12,345.73,236.39,344.37Z"/><path class="cls-2" d="M286.68,332.92c-.26.35-.42.62-.63.85-1,1.07-2,2.11-2.88,3.21-.69.82-1.22.72-2,0q-9.57-9.24-19.2-18.43c-.77-.73-.73-1.28,0-2,.52-.49,1-1.05,1.46-1.58,2.16-2.37,2.15-2.36,4.38-.22l17.68,16.9C285.92,332.08,286.28,332.49,286.68,332.92Z"/><path class="cls-2" d="M400.29,210.57,390,200.71c-3.18-3-6.38-6.05-9.54-9.1-1.3-1.25-1.28-1.28-.05-2.62.75-.83,1.57-1.6,2.25-2.49.81-1.05,1.43-.85,2.29,0,4.12,4,8.3,8,12.46,12,2.14,2,4.26,4.11,6.45,6.09.93.84,1,1.44,0,2.31C402.64,208,401.54,209.25,400.29,210.57Z"/><path class="cls-2" d="M371.07,242.19c-2.82-2.67-5.49-5.19-8.15-7.72q-5.82-5.54-11.61-11.09c-1.43-1.37-1.47-1.45-.11-2.76,1.13-1.1,1.87-2.6,3.39-3.29,1.12,1,2.26,2,3.35,3.06q8.17,7.76,16.31,15.54c1.44,1.37,1.42,1.4.15,2.77C373.36,239.79,372.31,240.88,371.07,242.19Z"/><path class="cls-2" d="M199.27,427.14a1.48,1.48,0,0,1-.55,1.13l-2.23,2.5c-1.4,1.57-1.41,1.57-2.9.15l-13.85-13.25c-1.62-1.54-3.22-3.11-4.89-4.59-.88-.78-.86-1.37,0-2.13,1.23-1.12,2.09-3.26,3.52-3.38s2.56,1.88,3.75,3q8,7.59,15.93,15.24C198.48,426.28,198.9,426.75,199.27,427.14Z"/><path class="cls-2" d="M294.94,281.55a4.76,4.76,0,0,1,1.84,1.36q9.11,8.69,18.2,17.39c1.3,1.24,1.28,1.25.06,2.62-.75.83-1.48,1.68-2.25,2.49-1.07,1.13-1.1,1.14-2.23.07q-5.47-5.2-10.92-10.43c-2.71-2.6-5.39-5.23-8.14-7.79-.73-.68-.93-1.17-.14-1.94C292.61,284.08,293.78,282.77,294.94,281.55Z"/><path class="cls-2" d="M360.57,253.41a.71.71,0,0,1-.08.22,28.52,28.52,0,0,1-4.13,4.29c-1.87-.69-2.95-2.35-4.31-3.64-5-4.7-9.94-9.48-14.89-14.23-.4-.39-.78-.8-1.2-1.17-.69-.62-.59-1.2,0-1.83.88-.93,1.78-1.84,2.59-2.83s1.46-.85,2.32,0c3.6,3.51,7.26,7,10.89,10.45l7.8,7.45A3,3,0,0,1,360.57,253.41Z"/><path class="cls-2" d="M414.39,152.8c.82,0,1.17.64,1.61,1.06q7.2,6.86,14.37,13.76c1.39,1.33,2.8,2.62,4.17,4,1.18,1.15,1.18,1.18,0,2.45-.85,1-1.76,1.86-2.61,2.81a1,1,0,0,1-1.61.07c-.28-.28-.6-.52-.89-.8q-8.92-8.54-17.83-17.08c-1.76-1.69-1.68-1.47,0-3.38.68-.79,1.4-1.54,2.12-2.29A6.73,6.73,0,0,1,414.39,152.8Z"/><path class="cls-2" d="M399,169.19a1.8,1.8,0,0,1,1.05.68q9.46,9,18.91,18c1.19,1.14,1.15,1.19,0,2.48-.73.84-1.53,1.64-2.24,2.5s-1.41,1-2.32.08c-2.14-2.15-4.38-4.2-6.58-6.29q-6.07-5.79-12.12-11.6c-1.32-1.27-1.3-1.3-.09-2.63.81-.89,1.63-1.75,2.47-2.62C398.37,169.53,398.62,169.2,399,169.19Z"/><path class="cls-2" d="M369.85,200.83c.66.07,1,.66,1.46,1.08q6.51,6.2,13,12.43c1.85,1.77,3.67,3.57,5.54,5.31.78.73,1,1.33.13,2.17a32.59,32.59,0,0,0-2.57,2.84c-.76.94-1.37.75-2.15,0-3.09-3-6.23-6-9.35-9s-6.33-6.1-9.49-9.15c-1.18-1.15-1.18-1.16,0-2.43.81-.89,1.63-1.75,2.46-2.62A1.61,1.61,0,0,1,369.85,200.83Z"/><path class="cls-2" d="M416.9,171.37a3.34,3.34,0,0,1-.34.48c-1.2,1.27-2.21,3.21-3.67,3.64-1.72.5-2.63-1.85-3.9-2.93-2-1.7-3.82-3.61-5.76-5.37-.87-.78-1.11-1.4-.15-2.32s1.94-2.1,2.91-3.16c.36-.39.75-.61,1.22-.16l9.48,9.09A.66.66,0,0,1,416.9,171.37Z"/><path class="cls-2" d="M283.31,315c-.16.21-.34.48-.55.71-1,1.05-2,2.09-2.93,3.15-.51.57-1,.73-1.59.12-3-2.87-6-5.72-9-8.58a1,1,0,0,1,0-1.62l.16-.18c1.21-1.14,2-3.25,3.5-3.41s2.52,1.91,3.74,3c2,1.81,3.95,3.7,5.91,5.57A1.7,1.7,0,0,1,283.31,315Z"/><path class="cls-2" d="M230.32,351.81a4.29,4.29,0,0,1,.51.4c2.89,2.75,5.76,5.51,8.65,8.24.68.64.95,1.2.16,2-1,1-1.86,2-2.75,3-.65.75-1.26.83-2,.11-2.85-2.78-5.73-5.54-8.6-8.31-.49-.47-.9-1-.29-1.62q1.7-1.84,3.42-3.68C229.58,351.76,229.77,351.59,230.32,351.81Z"/><path class="cls-2" d="M342,251.85a2,2,0,0,1-.19.43,6.69,6.69,0,0,1-.62.73l-3.37,3.37c-1.53-.62-2.41-2-3.57-3.06-2.06-1.87-4-3.83-6.09-5.72-.72-.67-.87-1.22-.11-2,1-1,1.85-2,2.74-3,.68-.79,1.28-.73,2,0,2.86,2.77,5.74,5.51,8.61,8.27A1.41,1.41,0,0,1,342,251.85Z"/><path class="cls-2" d="M362.08,209.38a9,9,0,0,1,.85.65c2.84,2.69,5.67,5.41,8.53,8.09.74.69.85,1.22.09,2-1,1-2,2.09-2.93,3.17-.56.64-1,.54-1.6,0q-4.33-4.15-8.69-8.27c-.71-.67-.9-1.23-.13-2,1-1,1.85-2,2.77-3A1.53,1.53,0,0,1,362.08,209.38Z"/><path class="cls-2" d="M191.82,414.12l-8-7.72c-2.44-2.35-2.44-2.35-.23-4.86s2.23-2.53,4.73-.14c2.24,2.15,4.5,4.29,6.72,6.46,1.34,1.31,1.34,1.34.17,2.65S193,412.82,191.82,414.12Z"/><path class="cls-2" d="M401.35,187.47a1.31,1.31,0,0,1-.16.44q-1.76,2-3.55,3.9c-.44.49-.86.26-1.23-.09q-4.53-4.29-9.05-8.58a1,1,0,0,1,0-1.64,1.93,1.93,0,0,0,.15-.19c3.24-4.29,3.24-4.29,7.14-.58,2,1.87,3.95,3.74,5.91,5.62C400.86,186.67,401.3,186.93,401.35,187.47Z"/><path class="cls-2" d="M382.92,207.11a5.39,5.39,0,0,1-.68-.49c-2.87-2.75-5.72-5.53-8.61-8.27-.73-.69-.8-1.25-.07-2,1-1,1.87-2,2.73-3,.71-.85,1.27-.63,2,0,2.81,2.71,5.62,5.42,8.47,8.07.82.76,1,1.32.11,2.14s-1.87,2-2.8,2.94A1.34,1.34,0,0,1,382.92,207.11Z"/><path class="cls-2" d="M312.71,283.43a2.89,2.89,0,0,1-.16.44,3.57,3.57,0,0,1-.28.38c-3.24,4.44-3.4,4.46-7.33.7-2-1.92-4-3.88-6-5.78-.76-.7-.78-1.24-.05-2,1-1,2-2.08,2.91-3.16.55-.64,1-.58,1.57,0,2.92,2.81,5.87,5.6,8.8,8.4A1.33,1.33,0,0,1,312.71,283.43Z"/><path class="cls-2" d="M243.78,336.64a1.85,1.85,0,0,1,1,.65c2.84,2.7,5.66,5.42,8.53,8.09.73.68.85,1.24.12,2-1,1-2,2.1-2.92,3.18-.56.64-1,.54-1.6,0-2.94-2.83-5.9-5.64-8.84-8.45-.42-.4-.81-.86-.3-1.43,1.12-1.25,2.26-2.48,3.41-3.71A2,2,0,0,1,243.78,336.64Z"/><path class="cls-2" d="M259.13,319.77c1.07,1,2.06,1.9,3,2.83,2.18,2.09,4.34,4.21,6.54,6.29.7.66.9,1.19.12,2-1,1-2,2.07-2.92,3.15-.54.62-1,.62-1.58.06q-4.45-4.33-8.94-8.61c-.58-.55-.71-1-.12-1.57C256.53,322.56,257.76,321.22,259.13,319.77Z"/><path class="cls-2" d="M358.19,233.9a1.07,1.07,0,0,1-.35,1c-1,1.11-2.07,2.2-3.08,3.33-.65.73-1.16.54-1.78-.06q-4.29-4.15-8.64-8.24c-.76-.71-.75-1.27,0-2,1.2-1.15,2.35-2.36,3.52-3.54,1.63.6,2.54,2.07,3.76,3.16,2,1.75,3.84,3.59,5.74,5.39C357.68,233.3,358,233.67,358.19,233.9Z"/><path class="cls-2" d="M225.24,377.29a1.07,1.07,0,0,1-.36,1c-1.07,1.19-2.15,2.37-3.22,3.56-.51.57-.95.36-1.41-.08q-4.42-4.22-8.87-8.42c-.67-.62-.71-1.14-.07-1.81,1-1,1.95-2.12,2.91-3.19a1,1,0,0,1,1.61-.07c3,2.81,5.92,5.6,8.88,8.41A5.69,5.69,0,0,1,225.24,377.29Z"/><path class="cls-2" d="M211.44,392.66a4,4,0,0,1-.44.71c-1,1.11-2.08,2.19-3.1,3.31a1,1,0,0,1-1.6,0q-4.39-4.22-8.82-8.39c-.65-.61-.77-1.14-.09-1.8,1.25-1.22,2.19-3.31,3.71-3.53s2.51,1.91,3.72,3c1.94,1.76,3.83,3.59,5.73,5.4A2.6,2.6,0,0,1,211.44,392.66Z"/><path class="cls-2" d="M171.95,414.48c.45,0,.7.35,1,.61,2.77,2.63,5.54,5.26,8.29,7.91,1.24,1.2,1.25,1.27.11,2.45s-2,3.07-3.35,3.21-2.4-1.84-3.56-2.89c-2-1.8-3.92-3.73-5.93-5.54-.89-.8-1-1.45-.1-2.33s1.74-1.86,2.62-2.78C171.27,414.86,171.5,414.51,171.95,414.48Z"/><path class="cls-2" d="M294.49,303.16c-.31-.25-.65-.46-.93-.73-2.84-2.7-5.65-5.43-8.51-8.1-.85-.79-.85-1.37,0-2.16,1-.94,1.88-2,2.8-3,.55-.6,1-.59,1.61,0q4.41,4.24,8.85,8.44c.55.52.71,1,.13,1.63-1.1,1.16-2.17,2.35-3.26,3.52A3.18,3.18,0,0,1,294.49,303.16Z"/><path class="cls-2" d="M328,267a7.93,7.93,0,0,1-.52.68c-1,1.06-2,2.09-2.94,3.16a1,1,0,0,1-1.6.06q-4.4-4.24-8.85-8.44a1.07,1.07,0,0,1,0-1.8c1-1,2-2.08,3-3.14.53-.58,1-.66,1.61-.08,2.93,2.83,5.89,5.64,8.84,8.45A1.32,1.32,0,0,1,328,267Z"/></g></svg>