<svg id="Capa_1" data-name="Capa 1" xmlns="http://www.w3.org/2000/svg" viewBox="0 0 555.11 545.34"><defs><style>.cls-1{opacity:0.85;}.cls-2{fill:#dc1616;}</style></defs><title>ICONOS GOOGLE</title><g class="cls-1"><path class="cls-2" d="M274.68,526.91C133,526.84,15.26,413.91,13.51,269.08,11.69,118.27,134.57,2.82,277.6,4.47,422,6.13,537.41,125.29,535.89,268.59,534.42,407.8,421.25,526.64,274.68,526.91ZM51.49,265.63c.24,124.71,101.2,222.66,222.11,223.2,123.06.55,224-99,224.22-222.72S397.62,42.92,275.4,42.53C153.42,42.13,51.76,140.64,51.49,265.63Z"/><path class="cls-2" d="M62.48,265.7C62.78,147,159,53.4,274.9,53.53c116.91.13,212.16,95.24,211.93,212.6-.23,117.11-95.72,212.17-213.08,211.7C158.57,477.36,62.81,384.13,62.48,265.7Zm286.27,81c-2.81,2.73-5.24,5.38-7.63,8.07a10.8,10.8,0,0,0-2.82,7.65c.08,8.72,0,17.44,0,26.16,0,3,0,5.93-.31,8.86a9.8,9.8,0,0,1-7.23,8.92,12.49,12.49,0,0,1-4,.67c-2.4,0-4.8,0-7.2,0H166.65a26,26,0,0,1-5.48-.47,9.71,9.71,0,0,1-8-7.91,24.6,24.6,0,0,1-.5-5.48q0-113.52,0-227c0-1.12,0-2.24.06-3.36.44-5.7,3.11-9.27,7.91-10.47a19.5,19.5,0,0,1,4.74-.6q79.92,0,159.83,0a21.24,21.24,0,0,1,4.75.57,9.47,9.47,0,0,1,7.63,7.41,28.86,28.86,0,0,1,.69,6.9q0,34.56,0,69.12a4.58,4.58,0,0,0,.34,2.64c2.75-3,5.3-5.85,8-8.61a9.47,9.47,0,0,0,2.66-7c0-25.83.27-51.67-.22-77.5a16.18,16.18,0,0,0-.6-4.26c-2.34-8-7-13.81-15.34-15.93-5.67-1.44-11.43-1-17.17-.29-.89.1-1,.62-1,1.32,0,2.4,0,4.8,0,7.2a22.47,22.47,0,0,1-.49,5.24,7,7,0,0,1-5.57,5.61,21.34,21.34,0,0,1-8.81.22,7.51,7.51,0,0,1-6.31-6.4,23.3,23.3,0,0,1-.42-4.77c0-2.4,0-4.8,0-7.2,0-1.1-.31-1.58-1.5-1.57q-7.2.07-14.4,0c-1.2,0-1.51.47-1.49,1.57.05,2.72,0,5.44,0,8.16a15.4,15.4,0,0,1-1.26,5.58,6.73,6.73,0,0,1-4.87,4.21,23.29,23.29,0,0,1-8.34.51,7.44,7.44,0,0,1-6.6-5.78,16,16,0,0,1-.53-4.27q0-4.2,0-8.4c0-1.66,0-1.7-1.76-1.71-4.08,0-8.16,0-12.24,0-2.35,0-3.26,1-3.3,3.39,0,1.84,0,3.68,0,5.52a15.41,15.41,0,0,1-1.59,6.71,8.12,8.12,0,0,1-5.26,4.57,14.39,14.39,0,0,1-11.53-1.61,5.86,5.86,0,0,1-2.29-2.71,11,11,0,0,1-1-4.89c0-3.12,0-6.24,0-9.36,0-1.22-.33-1.7-1.62-1.68-3.68.07-7.36,0-11,.06-3.43.07-4.41,1-4.66,4.39-.2,2.71-.18,5.44-.41,8.14-.4,4.77-2.9,7.21-7.66,7.63a31.51,31.51,0,0,1-5.75,0c-4.47-.42-7.15-3-7.64-7.49a34.93,34.93,0,0,1-.12-3.6c0-2.48,0-5,0-7.44,0-1.67,0-1.7-1.77-1.71-4,0-8-.07-12,0a21.59,21.59,0,0,0-11.91,3.9c-6.19,4.31-9,10.47-9.19,17.84-.17,5.76-.07,11.52-.07,17.28q0,115.08,0,230.15c0,1,0,2.08,0,3.12.38,6,2.33,11.41,6.84,15.63s9.72,5.7,15.59,5.75c8.4.07,16.8.05,25.2.05H311.47c5.36,0,10.72,0,16.08,0a21.4,21.4,0,0,0,20.29-14.19,28.56,28.56,0,0,0,1.49-9.91q0-21.48,0-43A13.65,13.65,0,0,0,348.75,346.68Zm-95.47,43.16,1.15-.43q32.11-12.9,64.24-25.76a17.28,17.28,0,0,0,6.42-4.44q28.38-30.6,56.81-61.17,11.51-12.39,23-24.78c2.89-3.13,2.8-4.25-.31-7.14q-17.25-16-34.53-31.91c-1.82-1.68-3.61-3.4-5.46-5.05s-3.51-1.73-5.49,0c-.65.59-1.24,1.25-1.84,1.89q-21.9,23.53-43.8,47.06Q295.93,297,278.39,315.92a18.53,18.53,0,0,0-4.15,7.19Q264,355.2,253.82,387.27A7.7,7.7,0,0,0,253.28,389.83Zm186.42-164c.21-4.55-1.78-8.41-5.19-11.65-1.39-1.32-2.83-2.6-4.24-3.89-5.18-4.76-10.19-9.7-15.58-14.23A17.6,17.6,0,0,0,400,191.89a23.14,23.14,0,0,0-12.84,6.95c-3.68,3.66-7.18,7.51-10.72,11.31-1.69,1.81-3.39,3.62-5,5.53-1.85,2.24-1.75,3.26.27,5.38.22.23.46.45.69.66q19.35,17.92,38.71,35.84a29.13,29.13,0,0,0,2.57,2.15,2.64,2.64,0,0,0,3.34,0,10.08,10.08,0,0,0,1.45-1.25c5.13-5.49,10.41-10.85,15.29-16.56A24.48,24.48,0,0,0,439.7,225.79ZM245.25,226h72.21c.64,0,1.28,0,1.92,0,.9,0,1.29-.36,1.29-1.28q0-7.08,0-14.15c0-.91-.33-1.33-1.25-1.28-.56,0-1.12,0-1.68,0H283.9l-110.6-.05c-2.47,0-3.26.75-3.29,3.32,0,3.84,0,7.68,0,11.51,0,1.87,0,1.87,1.83,1.92.56,0,1.12,0,1.68,0Zm.31-56.07H173.6a16,16,0,0,1-1.68,0c-1.24-.13-1.68.37-1.66,1.62.06,3.92,0,7.83,0,11.75,0,3.48-.39,3.05,3.07,3.05H317.51c.48,0,1,0,1.44,0,1.23.12,1.68-.36,1.66-1.63-.07-4,0-8,0-12,0-3.08.36-2.8-2.84-2.8Zm-.25,79H173.57c-.64,0-1.28,0-1.92,0-.85,0-1.37.23-1.36,1.21q0,7.08,0,14.15c0,.92.39,1.31,1.29,1.26.56,0,1.12,0,1.68,0q12.11,0,24.23,0,37.66,0,75.32,0c12.55,0,25.11,0,37.66.13a7.86,7.86,0,0,0,6-2.48,14.43,14.43,0,0,0,4.23-10.85c-.06-3.15-.26-3.33-3.41-3.33Zm46.6,39.55H172.78c-.4,0-.8,0-1.2,0-.9-.06-1.3.29-1.3,1.23q0,7,0,13.92c0,1.12.49,1.62,1.57,1.62h23q39.12,0,78.23,0a6.14,6.14,0,0,0,5.11-2c2.8-3.18,5.77-6.21,8.65-9.32C288.45,292.27,290,290.56,291.9,288.48Zm-28.42,39.43H172.86a7.68,7.68,0,0,1-1,0c-1.3-.16-1.64.47-1.63,1.67,0,4.08,0,8.16,0,12.23,0,3.13,0,2.83,2.92,2.83l80.83,0h1.2c2.5,0,2.84-.27,3.64-2.6q1-2.95,2-5.91C261.7,333.52,262.53,330.87,263.48,327.91Zm-12.85,39.77H172.4c-2.26,0-2.27,0-2.28,2.16q0,6.12,0,12.23c0,2.25,0,2.28,2.24,2.28h63.08c2.16,0,4.32,0,6.47-.08,2.8-.11,3.81-.88,4.72-3.53.75-2.19,1.46-4.39,2.15-6.6A47.78,47.78,0,0,0,250.63,367.68Zm21.42-240.62H272c0-3,.09-5.92,0-8.88s-1.42-4.31-4.41-4.67a18.6,18.6,0,0,0-4.31,0c-3.58.39-4.74,1.61-4.8,5.26-.08,4.72-.06,9.43-.07,14.15,0,1,0,1.92,0,2.88.2,3.18,1.63,4.58,4.85,4.75,1.12.06,2.24,0,3.36,0,3.9-.09,5.38-1.53,5.44-5.38C272.09,132.5,272.05,129.78,272.05,127.06Zm-52.68,0h0q0,4.07,0,8.15c0,.16,0,.32,0,.48.19,3.24,1.72,4.76,5,4.89,1,0,2.08,0,3.11,0,4.11-.13,5.56-1.56,5.69-5.73.08-2.55.08-5.11,0-7.67-.09-3.19.22-6.39-.37-9.56-.51-2.73-1.91-4.07-4.66-4.29a15.81,15.81,0,0,0-4.53.22c-3,.64-4.2,2-4.25,5.12C219.33,121.49,219.37,124.28,219.37,127.08Zm78.17,0c0,3,0,5.91,0,8.86s1.36,4.33,4.14,4.57a29.57,29.57,0,0,0,5,0c2.69-.23,4.18-1.65,4.22-4.3q.15-9.22,0-18.44c0-2.45-1.36-3.67-3.84-4.15a15.55,15.55,0,0,0-5.24-.12c-3.13.45-4.27,1.77-4.3,5C297.52,121.36,297.54,124.23,297.54,127.11ZM194,127.18h0c0-3.12.1-6.24,0-9.35-.11-2.59-1.25-3.68-3.8-4.13a19.8,19.8,0,0,0-5.24-.12c-2.94.26-4.41,1.86-4.42,4.88,0,5.84-.06,11.67,0,17.51,0,2.78,1.47,4.34,4.21,4.58a29.67,29.67,0,0,0,5,0c2.82-.23,4.19-1.67,4.27-4.49S194,130.14,194,127.18Z"/><path class="cls-2" d="M307.19,343.59a5.31,5.31,0,0,0,2.28-.24,8.57,8.57,0,0,1,9.88,7.76,7.15,7.15,0,0,1-4.79,7.51c-4.78,2-9.6,3.94-14.42,5.87-5.48,2.2-11,4.32-16.46,6.56a5.24,5.24,0,0,1-6.16-1c-2-1.85-3.94-3.76-6-5.53-2.33-2-2.73-4.24-1.8-7.08,2.39-7.28,4.64-14.61,7-21.92q1.08-3.43,2.21-6.84c.3-.91.6-1.82,1-2.7,1.69-3.85,4.52-5.48,8.35-4.87a8.12,8.12,0,0,1,6.95,7.48c.13,1.26-.68,2.89.28,3.65.72.57,2.27,0,3.45.06a12.72,12.72,0,0,1,2.13.32,7.36,7.36,0,0,1,6.12,7C307.26,340.93,307.19,342.2,307.19,343.59Z"/><path class="cls-2" d="M317.47,334.33c1.49-1.63,2.93-3.23,4.39-4.81q31.09-33.63,62.2-67.24c1.78-1.93,1.26-2.22,3.58,0,1.27,1.22,1.26,1.25,0,2.59L370.89,283q-24.09,26.06-48.19,52.1c-2.27,2.45-1.63,2.55-4.36.14A12.6,12.6,0,0,1,317.47,334.33Z"/><path class="cls-2" d="M300.64,319a7.4,7.4,0,0,1,1.83-2.34q32.08-34.71,64.18-69.4c2.43-2.62,1.62-2.64,4.5-.13.24.21.52.38.95.69-2.73,3-5.3,5.8-7.89,8.6L319.58,304.7l-13.83,15-1.48,1.58a.78.78,0,0,1-1.24,0Z"/></g></svg>