<?xml version="1.0" encoding="UTF-8"?>
<svg width="28px" height="26px" viewBox="0 0 28 26" version="1.1" xmlns="http://www.w3.org/2000/svg" xmlns:xlink="http://www.w3.org/1999/xlink" style="background: #FFFFFF;">
    <!-- Generator: Sketch 52.4 (67378) - http://www.bohemiancoding.com/sketch -->
    <title>Untitled</title>
    <desc>Created with Sketch.</desc>
    <g id="Page-1" stroke="none" stroke-width="1" fill="none" fill-rule="evenodd">
        <g id="ICONOS-GOOGLE-18" transform="translate(-258.000000, -190.000000)">
            <rect id="Rectangle" fill="#FFFFFF" x="212" y="101" width="1280" height="644.92"></rect>
            <rect id="Rectangle" fill="#000000" opacity="0.1" x="212" y="101" width="1280" height="644.92"></rect>
            <rect id="Rectangle" fill="#FFFFFF" opacity="0.7" x="249.26" y="180.46" width="363.14" height="45.23" rx="11.5"></rect>
            <g id="HZ8YMO.tif" transform="translate(258.000000, 190.000000)">
                <path d="M0.94,19.92 L0.94,1 C1.07606002,0.663460357 1.36678634,0.413733904 1.72,0.33 L1.93,0.33 L2,0.33 L9.81,2.2 C9.96801229,2.23566702 10.1319877,2.23566702 10.29,2.2 L14.88,1.13 L18.33,0.31 L18.54,0.31 L18.61,0.31 L26.61,2.23 C27.0257541,2.28672829 27.3739835,2.57305027 27.51,2.97 L27.51,21.92 C27.17,22.53 26.87,22.68 26.24,22.53 C23.86,21.96 21.47,21.4 19.1,20.79 C18.5133481,20.6690373 17.9048041,20.7105289 17.34,20.91 L18.14,22.52 C18.6541198,23.4253139 18.4666696,24.566677 17.69,25.26 C17.3529291,25.5455584 16.9454407,25.7354894 16.51,25.81 L16.1,25.81 L15.98,25.81 C15.2397706,25.6958295 14.6055832,25.2192508 14.29,24.54 L13.5,23 L13,22 C12.14,22.2 11.31,22.41 10.46,22.59 C10.1996714,22.6462586 9.93032856,22.6462586 9.67,22.59 C7.06,21.97 4.45,21.34 1.83,20.71 C1.40307294,20.6461344 1.05405983,20.3363363 0.94,19.92 Z M19.34,2.33 C19.34,2.42 19.34,2.49 19.34,2.55 C19.34,7.97666667 19.34,13.4 19.34,18.82 C19.34,19.01 19.4,19.07 19.57,19.11 L23.57,20.11 L25.75,20.63 L25.75,3.87 L19.34,2.33 Z M2.74,2.33 C2.74,2.43 2.74,2.51 2.74,2.58 C2.74,7.98666667 2.74,13.3933333 2.74,18.8 C2.74,19.01 2.82,19.08 3,19.12 L6.58,19.98 L9.17,20.61 C9.17,19.82 9.17,19.05 9.17,18.28 C9.18138193,18.2093844 9.16316984,18.1371988 9.11965058,18.0804346 C9.07613132,18.0236703 9.01114917,17.9873417 8.94,17.98 C7.36849133,17.5648934 6.04608379,16.5040609 5.3,15.06 C4.22931979,13.1901346 4.27933509,10.8817362 5.43,9.06 C6.18943516,7.73703912 7.44584818,6.77222912 8.92,6.38 C9.1,6.33 9.17,6.26 9.16,6.06 C9.15,5.86 9.16,5.44 9.16,5.13 L9.16,3.83 L2.74,2.33 Z M10.59,8 C8.26575803,7.98979717 6.36867443,9.85678893 6.3417161,12.180897 C6.31475777,14.505005 8.16802469,16.4154987 10.491878,16.4592111 C12.8157313,16.5029235 14.7395357,14.6634778 14.8,12.34 C14.8295972,11.20266 14.3997899,10.1013469 13.6076204,9.28471612 C12.815451,8.46808535 11.7277141,8.00499427 10.59,8 Z M10.92,6.2 C13.4785123,6.37391118 15.6517053,8.13691992 16.3493872,10.6046051 C17.0470691,13.0722902 16.1186998,15.7121952 14.03,17.2 C14.15,17.43 14.27,17.66 14.37,17.9 C14.4151631,18.0425949 14.5505869,18.1369812 14.7,18.13 C15.3407755,18.1694967 15.9307767,18.4919818 16.31,19.01 C16.39,19.12 16.47,19.23 16.55,19.35 C16.8,19.29 17.03,19.23 17.27,19.19 C17.51,19.15 17.57,19.06 17.57,18.82 C17.57,13.44 17.57,8.06 17.57,2.68 L17.57,2.38 L14.92,3 L11.14,3.89 C11.07,3.89 10.95,3.99 10.95,4.04 C10.92,4.71 10.92,5.44 10.92,6.16 L10.92,6.2 Z M10.92,20.65 L12.31,20.32 C12.31,20.32 12.38,20.2 12.4,20.14 C12.4242354,19.8837792 12.4918661,19.6335455 12.6,19.4 C12.8794032,19.0713593 12.8794032,18.5886407 12.6,18.26 C12.6,18.2 12.54,18.11 12.49,18.06 C12.4564518,18.0165357 12.4049004,17.9907599 12.35,17.99 L10.96,18.28 L10.92,20.65 Z M14.63,19.88 C14.4757941,19.8652733 14.326454,19.938715 14.2439733,20.0698381 C14.1614927,20.2009612 14.1599555,20.3673757 14.24,20.5 C14.78,21.61 15.33,22.71 15.89,23.81 C15.9446041,23.9450373 16.0699087,24.0383914 16.214924,24.0520742 C16.3599394,24.065757 16.5004938,23.9974877 16.579392,23.8750469 C16.6582902,23.7526061 16.6623811,23.5964027 16.59,23.47 C16.04,22.36 15.49,21.24 14.92,20.14 C14.87,20 14.71,19.9 14.64,19.84 L14.63,19.88 Z" id="Shape" fill="#000000" fill-rule="nonzero"></path>
                <path d="M10.93,20.61 L10.93,18.23 L12.32,17.94 C12.3749004,17.9407599 12.4264518,17.9665357 12.46,18.01 C12.46,18.07 12.53,18.15 12.57,18.21 C12.8494032,18.5386407 12.8494032,19.0213593 12.57,19.35 C12.4618661,19.5835455 12.3942354,19.8337792 12.37,20.09 C12.37,20.16 12.37,20.26 12.28,20.27 L10.93,20.61 Z" id="Path" fill="#FFFFFF"></path>
            </g>
        </g>
    </g>
</svg>