<svg xmlns="http://www.w3.org/2000/svg" viewBox="0 0 522.42 522.46"><defs><style>.cls-1{opacity:0.85;}.cls-2{fill:#dc1616;}</style></defs><title>Recurso 8</title><g id="Capa_2" data-name="Capa 2"><g id="Capa_1-2" data-name="Capa 1"><g class="cls-1"><path class="cls-2" d="M261.19,522.46C119.54,522.38,1.77,409.46,0,264.62-1.8,113.82,121.09-1.63,264.12,0,408.53,1.68,523.92,120.84,522.4,264.13,520.93,403.35,407.77,522.19,261.19,522.46ZM38,261.17c.25,124.71,101.2,222.67,222.12,223.2,123.05.55,224-99,224.22-222.72S384.13,38.47,261.91,38.07C139.93,37.68,38.28,136.19,38,261.17Z"/><path class="cls-2" d="M49,261.24C49.29,142.59,145.5,49,261.41,49.08c116.91.12,212.16,95.24,211.93,212.59-.23,117.11-95.72,212.17-213.08,211.7C145.08,472.91,49.32,379.68,49,261.24Zm286.26,81c-2.81,2.74-5.23,5.39-7.62,8.07a10.8,10.8,0,0,0-2.82,7.65c.08,8.72,0,17.44,0,26.16,0,3,0,5.93-.31,8.87a9.81,9.81,0,0,1-7.24,8.92,12.53,12.53,0,0,1-4,.67c-2.4,0-4.8,0-7.2,0H153.17a25.89,25.89,0,0,1-5.49-.47,9.7,9.7,0,0,1-8-7.91,24.5,24.5,0,0,1-.51-5.47q0-113.52,0-227c0-1.11,0-2.24.06-3.35.44-5.7,3.12-9.28,7.91-10.47a19.39,19.39,0,0,1,4.75-.61q79.91,0,159.83,0a21.58,21.58,0,0,1,4.75.57,9.47,9.47,0,0,1,7.63,7.41,28.62,28.62,0,0,1,.7,6.9q0,34.56,0,69.12a4.56,4.56,0,0,0,.35,2.63c2.75-3,5.3-5.85,8-8.6a9.5,9.5,0,0,0,2.67-7c0-25.84.27-51.67-.23-77.51a16.46,16.46,0,0,0-.59-4.26c-2.34-8-7-13.81-15.34-15.93-5.67-1.44-11.43-1-17.17-.29-.88.1-1,.62-1,1.32,0,2.4,0,4.8,0,7.2a22.51,22.51,0,0,1-.49,5.23,7,7,0,0,1-5.57,5.61,21.28,21.28,0,0,1-8.81.22,7.5,7.5,0,0,1-6.31-6.39,23.19,23.19,0,0,1-.42-4.77c0-2.4,0-4.81,0-7.2,0-1.1-.31-1.58-1.5-1.57q-7.2.07-14.4,0c-1.2,0-1.51.47-1.49,1.57.06,2.71.05,5.43,0,8.15a15.33,15.33,0,0,1-1.26,5.58,6.75,6.75,0,0,1-4.87,4.22,23.21,23.21,0,0,1-8.34.5,7.43,7.43,0,0,1-6.6-5.77,16.17,16.17,0,0,1-.53-4.27q0-4.2,0-8.4c0-1.66,0-1.7-1.76-1.71-4.08,0-8.16,0-12.24,0-2.35,0-3.26,1-3.3,3.39,0,1.84,0,3.68,0,5.52a15.29,15.29,0,0,1-1.59,6.71,8.08,8.08,0,0,1-5.26,4.57,14.36,14.36,0,0,1-11.52-1.61,5.74,5.74,0,0,1-2.29-2.71,11,11,0,0,1-1-4.89c0-3.12,0-6.24,0-9.36,0-1.21-.34-1.7-1.62-1.68-3.68.08-7.36,0-11,.07-3.42.07-4.41,1-4.66,4.39-.21,2.71-.18,5.44-.41,8.14-.4,4.77-2.9,7.21-7.66,7.63a31.55,31.55,0,0,1-5.75,0c-4.46-.42-7.14-3-7.64-7.49a36,36,0,0,1-.12-3.6c0-2.48,0-5,0-7.44,0-1.66-.05-1.7-1.77-1.71-4,0-8-.07-12,0a21.58,21.58,0,0,0-11.91,3.9c-6.19,4.31-9,10.47-9.19,17.83-.16,5.76-.06,11.52-.06,17.28V389c0,1,0,2.09,0,3.12.38,6,2.33,11.41,6.84,15.64s9.73,5.69,15.59,5.74c8.4.07,16.8,0,25.2.06H298c5.36,0,10.72,0,16.08-.05a21.41,21.41,0,0,0,20.29-14.19,28.5,28.5,0,0,0,1.49-9.91q0-21.48,0-42.95A13.75,13.75,0,0,0,335.26,342.22Zm-95.47,43.16c.57-.21.86-.31,1.15-.43q32.12-12.9,64.24-25.76a17.23,17.23,0,0,0,6.42-4.45q28.38-30.6,56.81-61.16c7.67-8.26,15.37-16.5,23-24.79,2.88-3.12,2.8-4.25-.32-7.13l-34.52-31.91c-1.82-1.69-3.61-3.41-5.46-5.06s-3.51-1.72-5.49.05c-.65.59-1.24,1.25-1.84,1.89L300,273.69q-17.55,18.88-35.1,37.78a18.6,18.6,0,0,0-4.16,7.19q-10.19,32.08-20.4,64.16A7.61,7.61,0,0,0,239.79,385.38Zm186.42-164c.21-4.55-1.78-8.41-5.18-11.65-1.39-1.32-2.83-2.59-4.24-3.89-5.18-4.76-10.2-9.7-15.58-14.23a17.61,17.61,0,0,0-14.72-4.13,23.17,23.17,0,0,0-12.84,6.95c-3.68,3.66-7.18,7.51-10.73,11.31-1.69,1.8-3.38,3.62-5,5.52-1.85,2.24-1.75,3.27.27,5.38.22.24.45.45.69.67l38.7,35.84a29.39,29.39,0,0,0,2.58,2.15,2.64,2.64,0,0,0,3.33,0A9.65,9.65,0,0,0,405,254c5.13-5.49,10.41-10.85,15.29-16.56A24.41,24.41,0,0,0,426.21,221.34Zm-194.45.17H304c.64,0,1.28,0,1.92,0,.9,0,1.29-.35,1.28-1.27q0-7.08,0-14.16c0-.9-.33-1.33-1.26-1.28-.56,0-1.12,0-1.68,0q-16.9,0-33.83,0l-110.59,0c-2.47,0-3.26.76-3.29,3.33,0,3.83,0,7.67,0,11.51,0,1.87,0,1.88,1.83,1.92.56,0,1.12,0,1.68,0Zm.3-56.08H160.12c-.56,0-1.13,0-1.68,0-1.24-.14-1.68.36-1.66,1.62.06,3.91,0,7.83,0,11.75,0,3.48-.4,3,3.07,3H304c.48,0,1,0,1.44,0,1.22.12,1.68-.36,1.66-1.63-.07-4,0-8,0-12,0-3.08.36-2.8-2.84-2.8Zm-.25,79H160.09c-.64,0-1.28,0-1.92,0-.85,0-1.37.23-1.36,1.21q0,7.08,0,14.15c0,.92.39,1.31,1.29,1.26.56,0,1.12,0,1.68,0q12.12,0,24.23-.05,37.67,0,75.32,0c12.56,0,25.11,0,37.66.13a7.87,7.87,0,0,0,6-2.48,14.44,14.44,0,0,0,4.23-10.86c-.06-3.15-.26-3.33-3.41-3.33ZM278.41,284H159.29c-.4,0-.8,0-1.2,0-.89-.06-1.3.29-1.29,1.24q0,6.94,0,13.91c0,1.13.5,1.62,1.58,1.62h23q39.1,0,78.23,0a6.12,6.12,0,0,0,5.11-2c2.8-3.18,5.77-6.21,8.65-9.32C275,287.81,276.5,286.11,278.41,284ZM250,323.46H159.37a7.69,7.69,0,0,1-1,0c-1.3-.16-1.64.47-1.62,1.67,0,4.08,0,8.16,0,12.24,0,3.13,0,2.83,2.92,2.83l80.83,0h1.2c2.5,0,2.84-.27,3.63-2.59.68-2,1.33-3.94,2-5.91C248.21,329.07,249.05,326.41,250,323.46Zm-12.85,39.77H158.91c-2.26,0-2.27,0-2.28,2.16q0,6.12,0,12.23c0,2.26,0,2.28,2.24,2.28q31.55,0,63.08,0c2.16,0,4.32,0,6.48-.08,2.8-.11,3.81-.88,4.71-3.53.76-2.19,1.46-4.39,2.16-6.6A48.06,48.06,0,0,0,237.14,363.23Zm21.42-240.62h-.06c0-3,.08-5.92,0-8.88s-1.42-4.3-4.4-4.67a18.27,18.27,0,0,0-4.31,0c-3.58.4-4.74,1.61-4.8,5.27-.08,4.71-.06,9.43-.07,14.15,0,1,0,1.92,0,2.88.2,3.17,1.63,4.57,4.85,4.75,1.12.05,2.24,0,3.36,0,3.9-.09,5.38-1.53,5.44-5.38C258.6,128.05,258.56,125.33,258.56,122.61Zm-52.68,0h0v8.14c0,.16,0,.32,0,.48.2,3.24,1.73,4.76,5,4.89,1,.05,2.08,0,3.11,0,4.11-.13,5.56-1.55,5.7-5.73.08-2.55.07-5.11,0-7.66-.08-3.19.22-6.39-.37-9.56-.51-2.73-1.9-4.07-4.66-4.29a15.68,15.68,0,0,0-4.53.22c-3,.63-4.2,2-4.25,5.12C205.85,117,205.88,119.83,205.88,122.63Zm78.18,0c0,3,0,5.9,0,8.85s1.36,4.34,4.14,4.58a30.05,30.05,0,0,0,5,0c2.69-.22,4.18-1.65,4.22-4.3q.15-9.21,0-18.44c-.05-2.45-1.37-3.66-3.85-4.15a15.63,15.63,0,0,0-5.24-.12c-3.12.45-4.27,1.77-4.3,5C284,116.91,284.05,119.78,284.06,122.66Zm-103.54.07h0c0-3.12.09-6.24,0-9.36-.11-2.58-1.26-3.68-3.81-4.12a19.55,19.55,0,0,0-5.24-.12c-2.94.26-4.42,1.86-4.42,4.88,0,5.83-.06,11.67,0,17.5,0,2.79,1.47,4.34,4.21,4.58a29.14,29.14,0,0,0,5,0c2.81-.23,4.18-1.67,4.27-4.48C180.58,128.64,180.52,125.68,180.52,122.73Z"/><path class="cls-2" d="M293.7,339.14a5.21,5.21,0,0,0,2.28-.24,8.56,8.56,0,0,1,9.88,7.76,7.15,7.15,0,0,1-4.79,7.52c-4.78,2-9.6,3.94-14.41,5.87-5.48,2.2-11,4.32-16.46,6.55a5.22,5.22,0,0,1-6.16-1c-2-1.85-3.94-3.75-6-5.53-2.32-2-2.73-4.24-1.79-7.08,2.39-7.29,4.63-14.62,6.95-21.93q1.08-3.42,2.21-6.83a28.07,28.07,0,0,1,1-2.7c1.69-3.85,4.52-5.49,8.35-4.87a8.14,8.14,0,0,1,6.95,7.48c.12,1.26-.68,2.89.28,3.65.71.56,2.27,0,3.45.06a13.08,13.08,0,0,1,2.13.33,7.36,7.36,0,0,1,6.12,7C293.77,336.48,293.7,337.74,293.7,339.14Z"/><path class="cls-2" d="M304,329.87c1.49-1.63,2.93-3.23,4.39-4.81q31.08-33.63,62.19-67.24c1.79-1.93,1.26-2.21,3.58,0,1.27,1.22,1.26,1.24,0,2.59q-8.37,9.07-16.76,18.14-24.09,26.06-48.2,52.1c-2.27,2.45-1.63,2.55-4.35.14A9.17,9.17,0,0,1,304,329.87Z"/><path class="cls-2" d="M287.15,314.57a7.48,7.48,0,0,1,1.83-2.34q32.08-34.71,64.18-69.4c2.43-2.62,1.62-2.64,4.51-.13.24.21.52.38.94.69-2.73,3-5.3,5.79-7.89,8.59q-22.31,24.14-44.63,48.26l-13.83,15-1.48,1.58a.78.78,0,0,1-1.24,0Z"/></g></g></g></svg>