<svg id="Capa_1" data-name="Capa 1" xmlns="http://www.w3.org/2000/svg" viewBox="0 0 561.4 569.53"><defs><style>.cls-1{opacity:0.85;}.cls-2{fill:#dc1616;}</style></defs><title>ICONOS GOOGLE</title><g class="cls-1"><path class="cls-2" d="M289.08,544H269.4c-.07-.58-.53-.45-.9-.48l-6-.39a242.51,242.51,0,0,1-44.7-7q-81-20.59-135.58-84C53.83,419.1,35.1,381.09,25.67,338.52a237.29,237.29,0,0,1-5.23-36.27c-.34-5.33-1.34-10.62-1.12-16V276.18c-.23-1.61.3-3.16.46-4.73.57-5.48.77-11,1.35-16.48A260.16,260.16,0,0,1,97.81,96.36a258.29,258.29,0,0,1,105-63.07,255.48,255.48,0,0,1,46.06-9.94c9.2-1.12,18.44-1.82,27.71-2h8.64c7,.14,14,.72,21,1.36a247.36,247.36,0,0,1,40.32,7.1c46.8,12.28,87.3,35.59,121,70.27,44.31,45.6,68.81,100.33,73.84,163.71a251.5,251.5,0,0,1-.23,40.5A260.94,260.94,0,0,1,319.24,541a243,243,0,0,1-28.41,2.58C290.24,543.64,289.53,543.33,289.08,544ZM57.76,282.49c0,123.51,99.77,222.12,221,223.27,122.47,1.16,223.93-97,225.3-220.61C505.4,160.84,405.29,59.48,280.9,59.49,156.8,59.5,57.78,160.07,57.76,282.49Z"/><path class="cls-2" d="M68.76,282.46c-.07-115.5,93.29-212,212.17-212,119.3,0,213.52,97.42,212.1,214.7-1.41,117.06-97.43,210.51-213.86,209.59C163.46,493.86,68.61,399.57,68.76,282.46Zm212.33-70.59H158.94c-.64,0-1.28,0-1.92,0-1.78.05-1.91.2-1.72,2,0,.24.1.47.13.71q2,14.24,4,28.49t4,28.73q2.31,16.5,4.6,33,2,14.48,4.08,29c1.5,10.44,3.09,20.87,4.56,31.32,1.09,7.76,2,15.54,3.08,23.3,1.19,8.71,2.45,17.41,3.68,26.12q1.89,13.29,3.81,26.58c.52,3.54,2.22,5,5.75,5.18.56,0,1.12,0,1.68,0l115.19.08h56.16c.8,0,1.6,0,2.4,0,3.86-.16,5.5-1.61,6.06-5.41.52-3.56,1-7.12,1.49-10.69q4.07-29.09,8.14-58.18,4-28.49,8-57,3.46-24.57,6.92-49.15c2.4-17.18,4.75-34.36,7.21-51.53.41-2.88.11-2.48-2.12-2.5H281.09Zm.05-14.14v.08H414.79c.72,0,1.44,0,2.16,0,1,.05,1.37-.46,1.39-1.45.15-7.67.47-15.35-.16-23a20,20,0,0,0-15.32-18.16,27.47,27.47,0,0,0-6.88-.84q-24.71,0-49.43,0c-1,0-1.92,0-2.88,0s-1.26-.47-1.24-1.35c0-1.28,0-2.56,0-3.84A30.84,30.84,0,0,0,318,119.64a53.8,53.8,0,0,0-11-.74q-27.83,0-55.66,0a44.21,44.21,0,0,0-5,.27,30.92,30.92,0,0,0-25.93,23.13,84.79,84.79,0,0,0-1.15,9.27c-.35,3,.36,2.79-3.06,2.79q-25.19,0-50.39,0a26.53,26.53,0,0,0-6.18.65c-9.84,2.32-16.15,10.4-16.34,21-.11,6.24-.07,12.48-.07,18.71,0,2.59.49,3.1,3.07,3.13,2.4,0,4.8-.06,7.2-.06Z"/><path class="cls-2" d="M322.59,396.42c.94-10.35,1.91-20.69,2.82-31,.74-8.44,1.38-16.89,2.11-25.33.7-8.12,1.47-16.24,2.19-24.36s1.4-16.09,2.11-24.13q1.41-16,2.86-32a15.52,15.52,0,0,1,.55-2.82,9.67,9.67,0,0,1,9.38-7.2,9.89,9.89,0,0,1,9.67,7.19,14.61,14.61,0,0,1,.49,5.46c-.71,7.8-1.45,15.6-2.15,23.4-.56,6.21-1.08,12.42-1.62,18.63q-1.14,13.26-2.27,26.52-1,12.07-2.11,24.13c-.88,9.87-1.8,19.74-2.68,29.61-.4,4.54-.76,9.08-1.13,13.62-.35,4.28-2,7.65-6.15,9.54-7.35,3.38-14.91-3.27-14.17-10,0-.4.08-.8.13-1.19Z"/><path class="cls-2" d="M239.15,396.44c.36,5.64-1.54,9-5.57,11.08A10.09,10.09,0,0,1,219,399.28c-.58-5.73-1-11.47-1.5-17.2q-1.09-12.54-2.2-25.08-1.05-12.07-2.08-24.13-1.12-12.9-2.26-25.8-.8-9.2-1.59-18.4-1.11-12.9-2.23-25.8a17.94,17.94,0,0,1,.18-5.49,9.48,9.48,0,0,1,9.18-7.67c5-.15,8.85,2.62,10.14,7.13a34,34,0,0,1,.74,6.18c.77,8,1.42,15.92,2.12,23.89q1.1,12.42,2.21,24.84c.55,6.21,1.07,12.42,1.6,18.64q1.12,12.9,2.25,25.8,1,11.95,2.08,23.89C238.21,385.89,238.73,391.7,239.15,396.44Z"/><path class="cls-2" d="M291.08,329.26q0,33.34,0,66.68c0,1,0,2.08,0,3.12a10,10,0,0,1-9.66,9.72,10.16,10.16,0,0,1-10.48-9.17,26.75,26.75,0,0,1-.09-2.87q0-67.52,0-135a20,20,0,0,1,.24-4.3A10.09,10.09,0,0,1,291,258.75c.1,1.11.08,2.24.08,3.36q0,33.58,0,67.16Z"/><path class="cls-2" d="M281.16,154.26h-37.9c-.56,0-1.12,0-1.68,0a1.21,1.21,0,0,1-1.45-1.2c-1.2-8.65,3.82-13.24,10.54-13.35,20.15-.31,40.29-.2,60.44-.19,6.53,0,10.61,4.15,10.59,10.72,0,4.82.5,4-3.85,4C305.63,154.29,293.39,154.26,281.16,154.26Z"/></g></svg>