<svg id="Capa_1" data-name="Capa 1" xmlns="http://www.w3.org/2000/svg" viewBox="0 0 579.59 575.07"><defs><style>.cls-1{opacity:0.85;}.cls-2{fill:#db1515;}</style></defs><title>ICONOS GOOGLE</title><g class="cls-1"><path class="cls-2" d="M309.24,554.28H291c-.35-.66-1-.37-1.5-.41-2.63-.18-5.27-.3-7.9-.46a243.55,243.55,0,0,1-44.46-7A261,261,0,0,1,40.33,319.33c-.6-5.89-.75-11.81-1.34-17.69-.06-.59.23-1.31-.46-1.75V282.12c1.44-.48.78-1.74.82-2.6a247.14,247.14,0,0,1,3.6-32.15,251.69,251.69,0,0,1,24.41-72.89q45.89-88.17,138.26-125.1A253.45,253.45,0,0,1,288,32c.68,0,1.45.23,2-.4H310.2c.67.64,1.51.36,2.28.4q10.66.55,21.25,1.89A249.3,249.3,0,0,1,385,45.79Q469.88,75.52,519.3,150.72c24.29,37,37.88,77.83,41.33,122a265.3,265.3,0,0,1-.23,43.14,256.39,256.39,0,0,1-7,41.55,261.77,261.77,0,0,1-158.33,179,256.91,256.91,0,0,1-57.82,15.13,254.32,254.32,0,0,1-26.5,2.4C310.24,553.9,309.61,553.64,309.24,554.28ZM300.33,69.76a216.73,216.73,0,0,0-48.1,5.17,220.44,220.44,0,0,0-97.07,48.47,15.21,15.21,0,0,1-7.91,4,27,27,0,0,0-7.94,2.65,22.83,22.83,0,0,0-6.37,4.23c-2.92,2.94-4,6.44-2.43,10.3.81,2,.27,3.13-1,4.62Q79.12,209.75,77.09,288.54a215.66,215.66,0,0,0,3.11,41.8,221,221,0,0,0,26.31,73.44,224.43,224.43,0,0,0,19.88,29.09c1.68,2.09,1.83,1.49,0,3.94-.82,1.09-1.65,2.16-2.42,3.28a18.36,18.36,0,0,0-2.34,4.45,8.36,8.36,0,0,0,1,8,13.79,13.79,0,0,0,5.07,4.3,34.27,34.27,0,0,0,6.49,2.46A85.87,85.87,0,0,0,152.6,462a5.85,5.85,0,0,1,3.65,1.43q57.39,48,132.09,52.35a216.24,216.24,0,0,0,54.9-3.82,221.35,221.35,0,0,0,102.2-49.63,13.09,13.09,0,0,1,6.24-3.21,48.13,48.13,0,0,0,10.87-3.71,14.5,14.5,0,0,0,4.58-3c3.13-3.27,4.31-7.17,2.94-11.47a4.05,4.05,0,0,1,1-4.44q48.69-58.53,52.14-134.61a216.11,216.11,0,0,0-4.32-53.67A221.55,221.55,0,0,0,474,152.94c-1.45-1.81-1.45-1.81-.05-3.58a31.05,31.05,0,0,0,4.06-5.92c2.74-5.85,1.11-11.11-4.48-14.37a24.9,24.9,0,0,0-6.48-2.47,94,94,0,0,0-18.7-2.85,7.56,7.56,0,0,1-4.77-1.78C402.05,87.51,354.22,70.3,300.33,69.76Z"/><path class="cls-2" d="M465.44,160.17c64.17,77.47,61.74,194.89-3,269a27.24,27.24,0,0,1-4.43-4.65c-2.24-2.82-4.4-5.7-6.86-8.33a34.82,34.82,0,0,1-2.33-3.62c-9.62-13.26-20.26-25.71-30.42-38.55q-29.11-36.77-58.27-73.51l-.59-.76c-2.12-2.78-2.13-4.08,0-6.81,5.67-7.14,11.41-14.22,17-21.4,28.85-36.83,58.41-73.09,87.42-109.78C464.47,161.29,464.9,160.81,465.44,160.17Z"/><path class="cls-2" d="M135.07,425.57c-1-.37-1.32-1.14-1.79-1.75a210.54,210.54,0,0,1-41.83-92.89,202.72,202.72,0,0,1-3.37-42.73Q90.21,215.62,135.7,159c2.36-2.93,1.88-2.87,4.24.12l99.64,126.15c3.49,4.42,3.48,4.79-.13,9.19-18.6,22.71-36.68,45.83-55,68.8q-23.9,30-47.65,60.21C136.27,424.17,135.65,424.88,135.07,425.57Z"/><path class="cls-2" d="M171,125.14a201.36,201.36,0,0,1,74.57-37.27,211.19,211.19,0,0,1,116,1.91,208.74,208.74,0,0,1,67,34.22,50.14,50.14,0,0,1-8.46,1.13c-10.91,1.17-21.72,2.74-32.09,6.6a70.78,70.78,0,0,0-25.67,16.39,277,277,0,0,0-22.26,25.77q-13.82,17.68-27.66,35.33c-3.07,3.89-6.36,7.61-9.55,11.41l-.31.37c-2.53,2.85-2.55,2.87-4.86,0-17.73-22.28-35.52-44.51-53.13-66.89a61,61,0,0,0-24.9-18.94,121.84,121.84,0,0,0-42.34-9.58C175.23,125.45,173.12,125.28,171,125.14Z"/><path class="cls-2" d="M171.89,461.69c3.47-.36,6.47-.66,9.46-1a158.47,158.47,0,0,0,24.51-4.47c12.47-3.43,23.08-10.1,32.33-19a235.11,235.11,0,0,0,21.05-24q16.14-20.43,32.22-40.91,3.41-4.34,7.19-8.37a4.17,4.17,0,0,1,1.62-1.41c.78.32,1.15,1.06,1.64,1.67q22.37,27.89,44.71,55.81,3.07,3.84,5.88,7.89c8.77,12.64,20.69,20.9,35.21,25.67a137.33,137.33,0,0,0,37.8,7.21,10.74,10.74,0,0,1,3.34.38C362.77,514.89,252.69,523.88,171.89,461.69Z"/></g></svg>