<svg xmlns="http://www.w3.org/2000/svg" viewBox="0 0 522.81 522.72"><defs><style>.cls-1{opacity:0.85;}.cls-2{fill:#dc1616;}</style></defs><title>Recurso 6</title><g id="Capa_2" data-name="Capa 2"><g id="Capa_1-2" data-name="Capa 1"><g class="cls-1"><path class="cls-2" d="M250.08,0h22.56c.51.56,1.2.37,1.81.38,4.64.07,9.25.52,13.87,1a243.27,243.27,0,0,1,39.1,7c47.65,12.6,88.78,36.5,122.72,72.22,45.64,48,69.65,105.45,72.46,171.65a259.81,259.81,0,0,1-28.52,128Q444.81,473.86,344.79,508.8c-23.62,8.22-48.08,12.27-73,13.51-.83,0-1.76-.3-2.49.41H253.92c-.32-.52-.84-.33-1.3-.36-4.62-.34-9.25-.65-13.87-1a239.86,239.86,0,0,1-39.68-6.49c-48.39-12.1-90.23-35.83-124.84-71.73Q7.33,373.74.84,277.29c-.12-1.72,0-3.5-.84-5.13V250.08c.6-.46.45-1.17.51-1.77.46-5,.84-10,1.33-15a240.58,240.58,0,0,1,7-38.61,259.41,259.41,0,0,1,69.9-120.1A259.58,259.58,0,0,1,248.55.38C249.07.36,249.69.59,250.08,0ZM38.39,261.06c-.07,122.86,99.22,222.79,222.31,223.25,122.93.46,223.64-98.56,224-222.54A222.9,222.9,0,0,0,262.61,38C137.9,37.48,38.38,138.39,38.39,261.06Z"/><path class="cls-2" d="M410.94,110.74l-3.64,2.18Q344.56,150.51,281.78,188a28.82,28.82,0,0,0-9.17,8.55q-26.73,38.68-53.68,77.21-7.87,11.32-15.78,22.63a16.28,16.28,0,0,0-2.27,3.94,6.57,6.57,0,0,0,6.49,8.81c3.74-.23,7.47-.75,11.2-1.17q9.66-1.1,19.3-2.22l21.9-2.6L278.82,301,301,298.36c6.43-.74,12.87-1.45,19.3-2.2,5.16-.6,10.31-1.24,15.47-1.86a10.3,10.3,0,0,0,4.87-1.87c.58-.41,1.21-.77,1.83-1.14,20.7-12.24,41.2-24.81,61.85-37.14s41.12-24.68,61.68-37c.81-.49,1.65-.94,2.5-1.43C486,286,462.79,392.79,362.52,447.64,266.27,500.29,144.43,470.73,83.19,376a211.72,211.72,0,0,1,50-283.72C220.33,26,339.4,38.67,410.94,110.74ZM175.51,283.94c.16-3.59.29-6.71.44-9.82a124.49,124.49,0,0,0-.92-24.18c-2.16-14.48-8.63-27-17.78-38.23a51,51,0,0,0-7.49-7.42c-4.93-4-10.39-6.89-16.75-7.76a20.51,20.51,0,0,0-8.11.18,6.57,6.57,0,0,0-4.63,7.64c.61,3.22,2.46,4.4,6.41,4.07a20.54,20.54,0,0,1,9.61,1.61A29.34,29.34,0,0,1,147,217.92a71.67,71.67,0,0,1,16.13,32c1.86,8,1.24,16.24.82,24.39-.66,12.62-1.35,25.23-.27,37.87a64.68,64.68,0,0,0,7.93,26.67,77.3,77.3,0,0,0,23.58,25.51c17.81,12.46,37.94,18,59.33,19.63a146.51,146.51,0,0,0,21.57,0,97.88,97.88,0,0,0,26.75-5.1c14.66-5.29,28.28-12.63,41.44-20.89a17.76,17.76,0,0,0,3.85-3.23,8.36,8.36,0,0,0,2.08-4,6,6,0,0,0-3.59-6.64c-2.7-1.23-5.72-.73-7.11,1.51a11.46,11.46,0,0,1-4,3.63,238.94,238.94,0,0,1-26.42,14.1,94.42,94.42,0,0,1-39.43,9c-5.44,0-10.87-.36-16.29-.81a120,120,0,0,1-24.73-4.45c-12.8-3.84-24.47-9.77-34.36-18.89-6.85-6.31-12.49-13.49-15.53-22.45a71,71,0,0,1-3.48-20A204.94,204.94,0,0,1,175.51,283.94Z"/><path class="cls-2" d="M329.14,261.9a1.49,1.49,0,0,1,.59-1c4.44-4.47,6.24-10.12,7.21-16.14a26.39,26.39,0,0,0-.24-10.25c-2.49-10.77-9.54-17.05-19.93-19.87-3.54-1-7.17-1.7-10.89-1.06-1.41.24-2.79.58-4.45.92.35-1.83.67-3.51,1-5.19a30.74,30.74,0,0,0-.71-14.94c-.57-1.93-.54-1.94,1.23-3l114.76-68.83c.34-.21.69-.4,1-.6,2.08-1.28,1.77-1.22,3.27.5a212.19,212.19,0,0,1,42.45,76.66,6.33,6.33,0,0,0,.33,1.15c.57,1.13.08,1.71-.91,2.29-4.54,2.68-9,5.43-13.57,8.14q-49.9,29.85-99.8,59.73c-1.4.83-2.36,1-3.8-.07a45.68,45.68,0,0,0-16.1-7.75C330.07,262.43,329.5,262.4,329.14,261.9Z"/><path class="cls-2" d="M288.69,200.17a14.81,14.81,0,0,1-.56,10.79,50.75,50.75,0,0,1-3.16,5.91,29.17,29.17,0,0,0-1.66,2.92c-1.1,2.59-1.2,5.15.75,7.43a6.44,6.44,0,0,0,7.56,2.08,38.55,38.55,0,0,1,7.86-2.05c4.86-.65,9.71-.89,14.48.64a22.44,22.44,0,0,1,2.26.8c5.61,2.42,8.28,7.18,7.53,13.3a26,26,0,0,1-2.39,8,40.84,40.84,0,0,1-8.73,12.22,7.51,7.51,0,0,0-2.57,4.47c-.58,4.55,2.68,7.9,7.57,7.66A34,34,0,0,1,335,278c.35.18.68.4,1.14.67a9.57,9.57,0,0,1-5.58,2.66c-6.58.81-13.16,1.57-19.75,2.34l-23.08,2.74-26.19,3.05a39.52,39.52,0,0,0-4.75.6c-2,.47-2.92-.39-3.82-2-2.82-4.92-5.76-9.78-8.65-14.66a37.53,37.53,0,0,0-2.5-4.09c-1.45-1.84-1.1-3.28.21-5.07,4.25-5.8,8.37-11.7,12.46-17.62q14.29-20.73,28.54-41.49a29.79,29.79,0,0,1,2.35-3A5.88,5.88,0,0,1,288.69,200.17Z"/></g></g></g></svg>