<svg id="Capa_1" data-name="Capa 1" xmlns="http://www.w3.org/2000/svg" viewBox="0 0 587.88 597.61"><defs><style>.cls-1{opacity:0.85;}.cls-2{fill:#db1515;}</style></defs><title>ICONOS GOOGLE</title><g class="cls-1"><path class="cls-2" d="M295,34h17.28c.58.63,1.35.36,2,.38a266.55,266.55,0,0,1,37.83,4.32,255.57,255.57,0,0,1,86.56,33.11Q504.58,112,538.61,181.31a249,249,0,0,1,25.75,103.12c0,.67-.25,1.44.38,2V304.2c-.63.57-.37,1.35-.38,2a209.71,209.71,0,0,1-3.4,33.85,251.14,251.14,0,0,1-23.71,72.13Q497,491.28,417.35,530.52A254,254,0,0,1,314.63,556.3a16.83,16.83,0,0,0-4.29.39H296.9a16.85,16.85,0,0,0-4.29-.38c-7.6-.24-15.16-1-22.7-1.91a252.26,252.26,0,0,1-51.25-12c-46.7-16.22-85.88-43.37-117.14-81.63Q48.14,395.48,42.89,311.07A38.63,38.63,0,0,0,42,304.2V288.84c.45-5.32.93-10.64,1.35-16a250.31,250.31,0,0,1,7.44-43.64A261,261,0,0,1,292.71,34.36C293.47,34.32,294.32,34.62,295,34Zm231.76,261.4c-.12-123.74-100-221.82-220.62-223.14-122.93-1.35-224.52,97.3-225.65,221C79.33,418.24,180.23,517.42,301.54,518.5,424.42,519.6,526.64,420.41,526.74,295.37Z"/><path class="cls-2" d="M91.46,295.38C91.39,177.21,188.07,82.26,305.37,83.2c115.53.93,211.48,95.41,210.36,214.29-1.11,117.35-97.52,211.34-214.63,210C185.78,506.18,91.43,412.18,91.46,295.38Zm281,33.88a3.94,3.94,0,0,1-1.52-1.43c-8.19-9.94-16.41-19.85-24.55-29.83q-10.84-13.29-21.54-26.71c-2.72-3.39-5.94-6-10.23-7.16a26.65,26.65,0,0,0-6.89-.73q-40,.09-79.91.14c-7.52,0-15-.05-22.55,0a43.74,43.74,0,0,0-8.82.86,11.54,11.54,0,0,0-8.9,7.57,34.11,34.11,0,0,0-1.57,5.53c-1.42,7.22-2.26,14.53-3.33,21.8-1.7,11.46-3.32,22.94-5,34.41q-2.74,18.74-5.53,37.48-3,20.52-6.09,41c-.65,4.43-1.44,8.84-1.18,13.35.39,6.83,3.82,11,10.47,12.52a43.66,43.66,0,0,0,9.77.9H401.8c2.8,0,5.59-.11,8.38-.37,7.39-.69,11.09-3.75,13.1-10.92.13-.46.25-.93.36-1.39.9-3.82,1.29-7.72,1.87-11.6q2.83-18.85,5.59-37.71,2.52-17.2,5-34.41,2.51-17.44,5-34.89c1.31-9.1,2.69-18.19,3.93-27.29,1.05-7.72-2.72-13.81-9.93-16.35a9.73,9.73,0,0,0-9.92,1.63,32.37,32.37,0,0,0-4.78,5q-22.89,28.09-45.79,56.17A10.56,10.56,0,0,1,372.48,329.25Zm-1.09-10.45c2.66-2.52,56.4-68.92,57.14-70.55-.57-.39-1.22-.23-1.84-.27l-20.34-1.25c-2.44-.15-2.56.36-2.55-2.76,0-.64,0-1.28,0-1.92q0-43.66,0-87.32c0-3.15.24-3-3-3h-60c-3.63,0-3.24-.34-3.25,3.17,0,16.47,0,32.94,0,49.42,0,9.83-.22,19.67.35,29.5a23.6,23.6,0,0,1-1.19,9,6.09,6.09,0,0,1-4.7,4.3,55.72,55.72,0,0,1-7.35,1c-3.06.29-6.16.29-9.61,1.22ZM305.26,249.7a2.65,2.65,0,0,0,0-1.47c-.22-1.91-.46-3.81-.63-5.72-.13-1.53,0-1.59,1.53-1.65.56,0,1.12,0,1.68,0q10.08,0,20.16,0c2,0,2.06,0,2.06-1.94q0-16.8,0-33.6c0-2,0-2-2-2-5.28,0-10.56,0-15.84,0-2.47,0-2.45,0-2.92-2.35a55.54,55.54,0,0,0-2.33-9,8.64,8.64,0,0,0-7.33-5.76,45.7,45.7,0,0,0-6.69-.47H210a48.29,48.29,0,0,0-6.93.48,9.47,9.47,0,0,0-7.66,5.47c-.59,1.22-1.14,2.47-1.62,3.74-.7,1.87-1.39,3.75-1.94,5.67a2.29,2.29,0,0,1-2.49,2c-3.2,0-6.39.29-9.59.42a48.54,48.54,0,0,0-7.61,1c-5.23,1.05-8.24,4.19-9.2,9.44a80.7,80.7,0,0,0-.88,14.58q0,58.44,0,116.88c0,.64,0,1.29,0,2.35a6.21,6.21,0,0,0,1-2.67c5.14-23.68,8.63-47.66,12.42-71.57.73-4.58,1.36-9.18,3.34-13.45a15.13,15.13,0,0,1,9.82-8.52,34.46,34.46,0,0,1,9.23-1.32c4.8-.09,9.6-.09,14.4-.09l90,0A6,6,0,0,0,305.26,249.7Zm106.09-29.62c-.22,5.93.1,10.56.24,15.19a4.29,4.29,0,0,0,.42,2.08c1,1.8,4.21,3.86,5.71,3.38a6.84,6.84,0,0,0,4.47-4.92,6.72,6.72,0,0,0,.14-1.19,105,105,0,0,0,.33-12.92c-.06-5.11-1.27-9.79-4.77-13.7-.53-.59-.95-1.29-1.42-1.93-1.07-1.44-1.07-1.44-3.2-.77-1.87.59-1.9.59-1.91,2.42C411.34,212.27,411.35,216.83,411.35,220.08Z"/></g></svg>