<svg id="Capa_1" data-name="Capa 1" xmlns="http://www.w3.org/2000/svg" viewBox="0 0 602.88 597.61"><defs><style>.cls-1{opacity:0.85;}.cls-2{fill:#dc1616;}.cls-3{fill:#231f1b;}</style></defs><title>ICONOS GOOGLE</title><g class="cls-1"><path class="cls-2" d="M560.36,267v22.08c-.63.57-.38,1.34-.38,2a168.33,168.33,0,0,1-1.46,19.11,254.43,254.43,0,0,1-11.44,50.61,261.86,261.86,0,0,1-188.5,171.59,262.42,262.42,0,0,1-42.15,6.24c-.46,0-1.17-.35-1.35.51h-25l-11.94-.87a242.38,242.38,0,0,1-40.89-6.52c-48.93-12.15-91.17-36.16-126-72.59q-67-70-72.78-167.06a63.27,63.27,0,0,0-.86-8.32V270.34c.58-.49.39-1.17.45-1.79.61-5.8.76-11.64,1.36-17.45A254.67,254.67,0,0,1,46,213.83c12.24-47.69,35.76-89,71.26-123.1,51.86-49.8,114-74.31,186-73.94a248.41,248.41,0,0,1,41.26,3.85,251.55,251.55,0,0,1,71.64,23.64C470.8,72.14,511.22,113.88,537,169.58a246,246,0,0,1,23,95.6C560,265.79,559.76,266.48,560.36,267ZM522.44,278C522.44,155,423.26,56,301.5,54.8c-123.22-1.19-224.69,97.76-225.34,222A222.86,222.86,0,0,0,299.37,501.07C423.74,501,522.39,400.28,522.44,278Z"/><path class="cls-2" d="M87.12,277.86c.17-118.44,96.75-213,213.81-212.08,116,.88,210.78,95.38,210.51,212.71-.26,115.9-94.06,211.55-212.11,211.58C181.62,490.12,87.17,394.78,87.12,277.86Zm382.79-26.07c.11-.14.26-.24.3-.37.16-.53.31-1.07.43-1.62a111.38,111.38,0,0,0,.8-45.49c-5.41-28.31-19.34-51.6-41.9-69.55-18.75-14.92-40.26-23-64.16-24.6-2.67-.18-5.42-.72-8.06.35-.21.09-.58.16-.69.06-1.17-1.17-2.59-.46-3.88-.52a40,40,0,0,0-8.33.91c-6.36,1-12.79,1.82-18.95,3.75a131.35,131.35,0,0,0-17.25,6.54,115.12,115.12,0,0,0-62,131.68,111.66,111.66,0,0,0,12.16,29.88c1.38,2.34,2.68,4.73,4.11,7a1.64,1.64,0,0,1-.34,2.48,16.6,16.6,0,0,0-1.19,1.18l-34,33.91-54.16,54.11c-2.77,2.77-5.62,5.47-8.28,8.35-4.92,5.33-5.22,12.71-.48,18.09a125.5,125.5,0,0,0,11,11c5.28,4.68,12.32,4.57,17.78.11a28.33,28.33,0,0,0,2.1-2q35.43-35.5,70.84-71C273.82,338,282,330,289.59,321.47c2.34-2.63,1.67-2.3,4.34-.54a115.9,115.9,0,0,0,61.85,19.45c.71,0,1.54.37,2.23-.39a9.29,9.29,0,0,0-.69-.79,74,74,0,0,1-19-26.5,3.71,3.71,0,0,0-2.34-2.21c-2.57-.89-5.11-1.86-7.69-2.72a80.06,80.06,0,0,1-34-21.71c-13.92-14.94-22.27-32.42-24-52.91a91.93,91.93,0,0,1,1.47-26.72,114.76,114.76,0,0,1,5.58-17.32,12.8,12.8,0,0,0,1.12-3.15c.11-1.19-.17-2.36,1.6-2.34.14,0,.34-.33.42-.55,1-2.69,3-4.7,4.39-7.12a57.62,57.62,0,0,1,8.89-11.26,82.29,82.29,0,0,1,16.38-13.62c5.9-3.62,11.81-7.17,18.54-9.28a104,104,0,0,1,21.5-4.73,83.51,83.51,0,0,1,20.34.69c23.44,3.62,42.62,14.61,57.19,33.33a84.92,84.92,0,0,1,18.43,51.48A4.69,4.69,0,0,0,448,226.7a71.63,71.63,0,0,1,20.38,23A5.16,5.16,0,0,0,469.91,251.79Zm1.79,32.42c.21-8.64-2-17.53-5.7-26.13a56.87,56.87,0,0,0-7.38-12.59c-16.67-21.5-38.64-29.69-65.35-26-24.82,5.26-41.76,19.69-50.6,43.53a64,64,0,0,0-2.13,37.5c7.32,31.58,38.9,57.27,78.1,49.69C445.81,345,471.55,320.91,471.7,284.21ZM338.64,440a5.56,5.56,0,0,0,3.59-.24C341,439.61,339.79,439.35,338.64,440Z"/><path class="cls-3" d="M338.64,440c1.15-.62,2.38-.36,3.59-.24A5.56,5.56,0,0,1,338.64,440Z"/><path class="cls-2" d="M375.08,272c5,0,10.08,0,15.12,0,2,0,2,0,2-2,0-9-.08-18.07-.11-27.11a29.94,29.94,0,0,1,.18-3.59c.47-3.94,2.83-6.14,6.81-6.4l.72,0c3.68,0,7.36-.08,11,0a7.35,7.35,0,0,1,7.44,7.24c.08,2.32,0,4.64,0,7q0,11.4,0,22.8c0,2.1,0,2.13,2.11,2.13q13.8,0,27.6,0a38.54,38.54,0,0,1,4.06.29,5.13,5.13,0,0,1,4.35,3.29,13.5,13.5,0,0,1,1.08,6.56,67.52,67.52,0,0,0-.08,7.19,12.66,12.66,0,0,1-.28,3.34,6.48,6.48,0,0,1-4.83,5.13,13.73,13.73,0,0,1-3.8.41h-27.6c-2.86,0-2.6-.13-2.6,2.59,0,9.68,0,19.36,0,29,0,3.65-2,6.34-5.24,7.13a11.36,11.36,0,0,1-2.62.23q-5,0-10.08,0c-5.46,0-8-2.59-8.06-8.13,0-9.12,0-18.24,0-27.36,0-.56,0-1.12,0-1.68-.05-1.78-.06-1.82-1.94-1.82l-27.84,0a18.6,18.6,0,0,1-3.1-.19c-3.84-.66-6-2.88-6.22-6.78-.21-4.07-.13-8.16-.05-12.23a7,7,0,0,1,2-4.76A6.28,6.28,0,0,1,360,272C365,272,370,272,375.08,272Z"/></g></svg>