<svg id="Capa_1" data-name="Capa 1" xmlns="http://www.w3.org/2000/svg" viewBox="0 0 580.51 569.53"><defs><style>.cls-1{opacity:0.85;}.cls-2{fill:#dc1516;}</style></defs><title>ICONOS GOOGLE</title><g class="cls-1"><path class="cls-2" d="M283,21.77h12.48c.48.64,1.18.35,1.77.35,7.29.08,14.53.69,21.77,1.48a247.48,247.48,0,0,1,40.87,8c49.72,14.19,91.85,40.59,125.84,79.53,40.35,46.23,61.69,100.28,64.49,161.55a250.16,250.16,0,0,1-2.14,45.71,258.63,258.63,0,0,1-11.89,50c-15.64,44.79-41.38,82.78-77.55,113.46-48.07,40.76-103.88,61.35-166.85,62.46a250.64,250.64,0,0,1-39.45-2.61,247.92,247.92,0,0,1-46.08-10.86Q119.4,501,69.29,423.95a255.16,255.16,0,0,1-35.75-87.32,234.41,234.41,0,0,1-4.72-33.93c-.36-5.8-1.45-11.56-1.13-17.41V281c-.15-6.72.91-13.36,1.37-20a232.13,232.13,0,0,1,6.43-40C47.65,172.12,71.61,129.9,108,95.14q72.51-69.23,173-73C281.7,22.1,282.47,22.42,283,21.77Zm3.24,484.45a245,245,0,0,0,29.62-1.53c4.38-.53,8.74-1.13,13.08-1.93a217.86,217.86,0,0,0,25.42-6.21A233.71,233.71,0,0,0,380,486.95c6.4-2.85,12.66-6,18.79-9.33a185.07,185.07,0,0,0,18.45-11.69c6.29-4.46,12.31-9.26,18.24-14.16,3.37-2.78,6.48-5.88,9.61-8.94a228.89,228.89,0,0,0,20.71-23.24A221.36,221.36,0,0,0,510.14,315a233.48,233.48,0,0,0,2.2-25.32,221.57,221.57,0,0,0-1.21-30.38c-.44-4.35-1.2-8.65-1.93-13q-1.39-8.25-3.33-16.38a216.92,216.92,0,0,0-6.75-22.42c-2.73-7.67-6-15.11-9.46-22.46-2.64-5.59-5.7-11-8.86-16.27A198.66,198.66,0,0,0,469.66,152c-2.83-3.81-5.64-7.61-8.71-11.24-2.3-2.71-4.57-5.46-6.92-8.11-2.75-3.11-5.88-5.88-8.75-8.89A151.44,151.44,0,0,0,432.41,112q-6.56-5.45-13.54-10.41a221.81,221.81,0,0,0-24.13-15c-4.8-2.55-9.67-5-14.64-7.21-5.61-2.52-11.33-4.74-17.12-6.79a230.46,230.46,0,0,0-27.7-7.69c-6.17-1.35-12.39-2.28-18.62-3.19-5.1-.74-10.26-1.17-15.42-1.4a224.74,224.74,0,0,0-25.9.14c-6.37.44-12.71,1.1-19,2.06-6.67,1-13.29,2.21-19.84,3.78A211.21,211.21,0,0,0,212.2,73.6c-6.25,2.32-12.41,4.81-18.42,7.69a213.54,213.54,0,0,0-24.49,13.47,235.54,235.54,0,0,0-20.23,14.56c-4,3.3-8.06,6.63-11.85,10.19-4.77,4.47-9.39,9.11-13.75,14q-7.13,8-13.58,16.54a218.13,218.13,0,0,0-31.06,58.12c-1.35,3.91-2.73,7.83-3.88,11.78-1.23,4.27-2.66,8.51-3.49,12.9-.8,4.23-1.74,8.43-2.43,12.68-.59,3.66-.93,7.36-1.33,11.05-.38,3.49-.8,7-1,10.49A223.86,223.86,0,0,0,67,302.76c.5,5.23.77,10.49,1.57,15.67C69.44,324,70.63,329.54,72,335c1.55,6.08,3.07,12.18,5.2,18.09,1.91,5.3,3.5,10.7,5.88,15.84,1.91,4.13,3.52,8.41,5.63,12.45,2.52,4.84,4.86,9.79,7.7,14.43A231.37,231.37,0,0,0,111.9,418.6c5.82,7.39,11.87,14.57,18.39,21.36,2.21,2.3,4.6,4.41,7,6.57,2.76,2.52,5.57,5,8.39,7.41A177.83,177.83,0,0,0,159.82,465a220.72,220.72,0,0,0,23.66,14.71,227.39,227.39,0,0,0,33.2,14.56c4.67,1.6,9.37,3.11,14.11,4.44,4,1.14,8.18,2.14,12.33,2.92,2.47.46,4.89,1.23,7.37,1.47,2.74.26,5.47.74,8.18,1.13,3.92.57,7.87.89,11.8,1.21C276.51,506,282.59,506.32,286.29,506.21Z"/><path class="cls-2" d="M76.88,263.62c-.24-29.59,15.72-76.48,49.61-116.52,41.67-49.22,95.31-74.84,159.83-76,53.2-.92,100.59,16.27,140.88,51,45.27,39,70.23,89,73.66,148.68,3.56,61.87-17,115.34-59.65,160.33-41,40.5-89.91,62.61-147.77,64C174.77,498,78.43,402.06,76.88,263.62ZM289.16,441.34v0h25.68c.56,0,1.12,0,1.68,0a1.93,1.93,0,0,0,2-2c.06-.64,0-1.28,0-1.92,0-8.8,0-17.6,0-26.4,0-4.05.7-5,4.64-6.09,5.25-1.45,10.22-3.65,15.33-5.49,2.07-.75,2.16-1.31.79-3.12-.15-.19-.3-.38-.45-.56-5.25-6.25-10.52-12.47-15.72-18.76a3.46,3.46,0,0,0-4-1.32c-2.62.73-5.26,1.35-7.89,2a110.28,110.28,0,0,1-24.8,4,85.69,85.69,0,0,1-46.13-11.63,93.73,93.73,0,0,1-38.18-40.34c-9.09-18.39-13.74-37.65-11.25-58.24a96.61,96.61,0,0,1,20.76-49.81c10.54-13.14,23.25-23.59,39.06-29.74a110.22,110.22,0,0,1,54.87-6.6,78.12,78.12,0,0,1,35,13.47,166.4,166.4,0,0,1,19.4,16,87.42,87.42,0,0,1,23.4,37.69,120.26,120.26,0,0,1,5.25,32.8,64,64,0,0,1-1.36,15.25,68.3,68.3,0,0,1-4.73,14.31c-1.14,2.52-1,3,1,4.74,5.91,5,11.8,10.08,17.45,15.4.17.16.35.33.54.48,1.49,1.17,2.16,1,2.91-.64.23-.51.39-1,.59-1.57q3.3-8.88,6.6-17.75c1-2.75,1.91-3.4,4.77-3.4q13.32,0,26.64,0c4.44,0,4.63-.18,4.63-4.53q0-23.64,0-47.27c0-1.2,0-2.4,0-3.6-.08-2.1-.64-2.61-2.8-2.68-.56,0-1.12,0-1.68,0l-26.64,0c-2.92,0-3.32-.29-4.45-3-4.38-10.64-8.72-21.3-13.18-31.91a4.38,4.38,0,0,1,1-5.38c4.71-4.79,9.34-9.66,14-14.5,1.67-1.73,3.37-3.41,5-5.15s1.79-2.59.07-4.43c-.77-.82-1.56-1.61-2.35-2.4q-7.51-7.59-15-15.18-9.17-9.32-18.31-18.68c-1.93-2-2.54-2-4.57-.1l-.52.5c-6.58,6.31-13.2,12.58-19.7,19a4,4,0,0,1-5.08,1c-10.46-4.39-21-8.62-31.48-12.9-3.37-1.37-3.67-1.78-3.66-5.55,0-8.8.06-17.6.07-26.4,0-3.84-.38-4.14-4.3-4.14q-25.2,0-50.39,0c-3.2,0-3.57.3-3.58,3.54,0,2.4,0,4.8,0,7.2,0,6.64.07,13.28.07,19.92,0,3.21-.43,3.79-3.44,5-10.56,4.14-21.13,8.24-31.66,12.46a4.84,4.84,0,0,1-5.82-1.17c-6.35-6.09-12.81-12.06-19.23-18.08-2.6-2.44-2.84-2.42-5.38.17q-14,14.21-27.93,28.4c-2.47,2.51-5,5-7.43,7.5s-2.39,3,.12,5.45l1.2,1.17q8.56,8.41,17.12,16.82c2.59,2.56,2.87,4,1.42,7.28-4.43,9.93-8.59,20-12.72,30-1.33,3.23-1.89,3.6-5.37,3.6l-26.4,0-1.92,0a1.69,1.69,0,0,0-1.83,1.78c0,.72,0,1.44,0,2.16q0,24.72,0,49.43c0,4.85.28,5.1,5.17,5.06,8.4-.06,16.8,0,25.19-.13a5.12,5.12,0,0,1,5.46,3.62c4.2,10.28,8.57,20.5,12.88,30.74,1.29,3.07,1.18,3.68-1.25,6.12q-9.55,9.62-19.1,19.25c-2,2-2,2.75,0,4.75l32.41,32.07c1.54,1.52,3.06,3.05,4.65,4.51,1.14,1,1.76,1,2.92,0,.37-.31.68-.67,1-1,6.57-6.43,13.17-12.84,19.7-19.32a3.29,3.29,0,0,1,4.06-.88q16.68,7,33.42,13.86a4.26,4.26,0,0,1,2.89,4.45c-.08,9.12-.1,18.23-.18,27.35,0,2.86.46,3.42,3.24,3.42ZM218.44,251.85a4.49,4.49,0,0,0-.53.78c-4.82,14.11-6.35,28.52-3.69,43.24A66.08,66.08,0,0,0,236,334.43c20.46,18.12,44.11,23.54,70.51,16.29,3.08-.84,5.13-.26,7.17,2.09q19.14,22,38.42,43.86c7,8,13.94,16.08,21.21,23.84a58.74,58.74,0,0,0,18.6,13.72c6.31,2.86,12.86,4.37,19.81,3.23,11.11-1.83,20.15-7,26.32-16.61a43.83,43.83,0,0,0,6.13-16.28A34,34,0,0,0,437.5,377a45.09,45.09,0,0,0-6.64-6.9c-4.44-3.79-8.88-7.58-13.36-11.32-13.74-11.49-27.7-22.73-41.21-34.5Q366.77,316,357.92,307a3.92,3.92,0,0,1-.94-5,53.64,53.64,0,0,0,2.15-5.34c6.46-18.55,5.3-36.46-5.51-53.08a80.89,80.89,0,0,0-38.86-31.93c-18.55-7.27-37.25-6.1-55.84.18a1.15,1.15,0,0,0-.75.61c.15.93,1,1.38,1.58,2q19,18.66,38,37.29c3.08,3,6.2,6,9.25,9.07,1.44,1.44,1.37,1.9,0,3.36-2.83,2.94-5.58,6-8.47,8.83q-13.62,13.53-27,27.34c-2.45,2.53-2.84,2.51-5.33-.08q-16.9-17.53-33.81-35.06C228,260.64,223.39,256.21,218.44,251.85Z"/></g></svg>