<svg id="Capa_1" data-name="Capa 1" xmlns="http://www.w3.org/2000/svg" viewBox="0 0 595.57 597.61"><defs><style>.cls-1{opacity:0.85;}.cls-2{fill:#dc1516;}</style></defs><title>ICONOS GOOGLE</title><g class="cls-1"><path class="cls-2" d="M287,46.55h22.08c.48.63,1.18.36,1.78.39a272.54,272.54,0,0,1,31,3.37,256.48,256.48,0,0,1,73.5,24.05,261.61,261.61,0,0,1,132.63,157,254.22,254.22,0,0,1,11.22,71v16.8c-.42.25-.36.67-.37,1.06-.08,2.64,0,5.29-.24,7.91A262.89,262.89,0,0,1,553,365.1Q536.18,439,482.64,492.69A260.29,260.29,0,0,1,295.51,569q-10.91-.11-21.79-1.1a254.64,254.64,0,0,1-39.18-6.66A262,262,0,0,1,58.1,411.15a255.87,255.87,0,0,1-20.32-82c-.21-2.71-.35-5.42-.56-8.13,0-.4.24-1.29-.79-.91V300.47c.83-2.12.73-4.38.84-6.58a257.2,257.2,0,0,1,7-47.84C63.5,165.86,121.07,98.53,197.53,66.7A260.5,260.5,0,0,1,285,47C285.65,46.92,286.42,47.18,287,46.55ZM521.23,308.1c.14-122.72-99-223.26-223-223.38C175.18,84.6,75.36,183.85,75,307c-.41,125.09,100.8,223.35,221.87,224C419.7,531.66,521.06,432.38,521.23,308.1Z"/><path class="cls-2" d="M85.91,307.62c.23-116.54,94.29-212,212.29-211.9,118.82.07,212.45,96.7,212,212.85C509.82,426.08,413.86,520.69,296.77,520,181.55,519.33,86,425.8,85.91,307.62Zm208.34-168.3q-23.28,0-46.55,0a18.44,18.44,0,0,0-18.24,16.44c-1,8.24,4.76,17.61,13.75,19.66a26.28,26.28,0,0,0,5.95.65c3.68,0,7.36,0,11,0,1.76,0,1.82.06,1.82,1.71,0,7.2,0,14.4,0,21.6a1.89,1.89,0,0,1-1.68,2.14c-2.32.61-4.63,1.25-6.91,2-37.83,12.16-65.89,35.88-83.87,71.34A136.47,136.47,0,0,0,155,334.93a141.16,141.16,0,0,0,1.8,24.12,134.63,134.63,0,0,0,17.15,48,139.9,139.9,0,0,0,120.83,69.3,134.42,134.42,0,0,0,28.32-3.07c33.05-7.06,60-24,81-50.34,16.65-20.93,26.18-44.91,29.1-71.44a135.75,135.75,0,0,0-1.18-37.77,138.87,138.87,0,0,0-24.87-59.14q-.56-.78-1.11-1.56a1,1,0,0,1,.18-1.48c2.5-2.47,5-5,7.48-7.46a1,1,0,0,1,1.66.05l1.54,1.52c2.06,2,4,4.15,6.22,6a11,11,0,0,0,16-14.94,22.86,22.86,0,0,0-2.71-3l-26.16-26.1c-4.08-4.07-8.18-8.11-12.24-12.19a10.9,10.9,0,0,0-7.2-3.41,11.1,11.1,0,0,0-10.77,6.2A11.36,11.36,0,0,0,382,210.74c1.64,1.75,3.39,3.39,5.07,5.11,1.21,1.24,1.21,1.28,0,2.47-2,2-3.95,4-5.93,5.94-1.73,1.72-1.74,1.72-3.75.34-4.87-3.36-9.74-6.72-14.92-9.6a140.79,140.79,0,0,0-37.27-14.26c-1.36-.31-1.86-.83-1.85-2.21.05-6.88,0-13.76,0-20.64,0-1.66.14-1.78,1.79-1.8,3,0,6.08,0,9.12,0a72.73,72.73,0,0,0,10.06-.37A18.32,18.32,0,0,0,341,139.34C325.45,139.26,309.85,139.32,294.25,139.32Z"/><path class="cls-2" d="M411.86,337c.24,64.5-52.88,117.95-118.66,117.28a117.52,117.52,0,0,1-116.13-118c.12-63.58,52.33-118.23,119.8-116.87A117.14,117.14,0,0,1,411.86,337Zm-107-3.61c2-3,40.49-83.17,40.78-85.26l-57.07,77.76C296.48,324,301.67,326.64,304.87,333.35Zm-11.6-6.14a10.12,10.12,0,0,0-10.38,10.24,10.36,10.36,0,1,0,20.73,0A10.13,10.13,0,0,0,293.28,327.22ZM299,245h0c0-1.44,0-2.87,0-4.31,0-2.15.09-4.32-.05-6.46a4.93,4.93,0,0,0-9.78-.43,9.71,9.71,0,0,0-.12,1.67c0,4.87-.09,9.74,0,14.6a23.62,23.62,0,0,0,.34,6,4.6,4.6,0,0,0,4.72,3.61,4.73,4.73,0,0,0,4.9-4.81C299,251.57,299,248.3,299,245Zm0,178.61h0c0-1.2,0-2.39,0-3.59,0-2.31.08-4.63-.05-6.94a4.91,4.91,0,0,0-9.71-.63,7.65,7.65,0,0,0-.18,1.66q0,9.33,0,18.67a9.42,9.42,0,0,0,.34,2.36,4.25,4.25,0,0,0,3,3.1,4.84,4.84,0,0,0,6.53-4.57C299.07,430.35,299,427,299,423.64Zm84.5-94.38v-.06c-3.43,0-6.86-.08-10.29,0a4.89,4.89,0,0,0-.48,9.72,18.94,18.94,0,0,0,2.86.17q6.82,0,13.64,0c1.67,0,3.35,0,5-.15a4.29,4.29,0,0,0,3.49-2.22,4.82,4.82,0,0,0-4-7.46C390.34,329.15,386.91,329.26,383.48,329.26Zm-178.64-.08H200c-2,0-4-.08-6,.08a4.89,4.89,0,0,0-.17,9.71,17.42,17.42,0,0,0,2.39.14c5.12,0,10.23,0,15.35,0a23.06,23.06,0,0,0,3.82-.24,4.88,4.88,0,0,0-1-9.69C211.24,329.2,208,329.19,204.84,329.19Z"/></g></svg>