<svg id="Capa_1" data-name="Capa 1" xmlns="http://www.w3.org/2000/svg" viewBox="0 0 559.31 569.53"><defs><style>.cls-1{opacity:0.85;}.cls-2{fill:#dc1516;}</style></defs><title>ICONOS GOOGLE</title><g class="cls-1"><path class="cls-2" d="M271.34,20.33c146-.3,262.93,120,260.92,263.14,0,139.61-114.75,260.51-263.76,259.16C128,541.36,10.68,428.08,9.83,281.11,11.09,132,131.76,19.68,271.34,20.33Zm0,38C150,58,49.08,156,48.12,279.6c-1,125.66,100.73,224.53,222.17,225,123.23.48,224.07-99.4,224.1-223.08S393.94,58.13,271.36,58.37Z"/><path class="cls-2" d="M59,281.47C59.33,162.82,155.52,69.2,271.39,69.29c116.93.1,212,95.13,212,212.23,0,117.3-95.59,212.45-212.9,212.07C155.15,493.22,59.36,399.89,59,281.47Zm212,143.44h132a11.55,11.55,0,0,0,11.65-11.77c-.07-4.4,0-8.8,0-13.2,0-2.08,0-2.1-2.12-2.1H391a13.72,13.72,0,0,1-2.16-.07,2.83,2.83,0,0,1,.18-5.65c.71-.07,1.44,0,2.16,0q10.68,0,21.36,0c2.07,0,2.1,0,2.1-2.14q0-9.6,0-19.2c0-2.13,0-2.14-2.29-2.14H391.23a12.25,12.25,0,0,1-2.62-.18,2.6,2.6,0,0,1-2.36-2.83,2.75,2.75,0,0,1,2.78-2.73c.71-.07,1.44,0,2.16,0h21.36c2.1,0,2.12,0,2.12-2.07q0-9.6,0-19.2c0-2.19,0-2.21-2.24-2.21H390.59a9.75,9.75,0,0,1-2.15-.13,2.67,2.67,0,0,1-2.17-3,2.73,2.73,0,0,1,2.41-2.57,13.31,13.31,0,0,1,1.92,0h22.08c2,0,2,0,2-1.95q0-9.72,0-19.44c0-2.14,0-2.15-2.28-2.15h-21.6a12.15,12.15,0,0,1-2.15-.09,2.63,2.63,0,0,1-2.38-2.58,2.69,2.69,0,0,1,2.27-2.94,11.47,11.47,0,0,1,2.39-.14h21.6c2.12,0,2.15,0,2.15-2q0-9.72,0-19.44c0-1.93,0-2-2-2H390.84a12,12,0,0,1-2.39-.12,2.72,2.72,0,0,1-2.19-2.77,2.57,2.57,0,0,1,2-2.66,7.06,7.06,0,0,1,2.38-.2h21.84c2.15,0,2.18,0,2.18-2q0-9.84,0-19.68c0-1.8,0-1.83-1.87-1.83q-11,0-22.08,0a14.1,14.1,0,0,1-1.92,0,2.69,2.69,0,0,1-2.51-2.72,2.66,2.66,0,0,1,2.34-2.87,17.41,17.41,0,0,1,2.87-.12c7.12,0,14.24,0,21.36,0,1.8,0,1.83,0,1.83-1.86q0-9.6,0-19.2c0-2.37,0-2.38-2.32-2.38H391a14.23,14.23,0,0,1-2.39-.11,2.84,2.84,0,0,1-.29-5.52,8,8,0,0,1,2.62-.2c7.28,0,14.56,0,21.84,0,1.82,0,1.86,0,1.86-1.86,0-6.56,0-13.12,0-19.68,0-.24,0-.48,0-.72.06-1-.45-1.27-1.32-1.22-.56,0-1.12,0-1.68,0H390.52a6,6,0,0,1-2.59-.33,2.63,2.63,0,0,1-1.71-2.63,2.54,2.54,0,0,1,1.68-2.39,6.38,6.38,0,0,1,2.82-.42H411.6a15.22,15.22,0,0,1,1.68,0c1.23.14,1.54-.5,1.46-1.57,0-.56,0-1.12,0-1.68q0-14.4,0-28.8c0-2.16.06-4.32-.06-6.48a11.25,11.25,0,0,0-7.73-10c-5-1.55-9.23-.35-12.92,3.37-9.07,9.15-18.2,18.22-27.31,27.33q-29.43,29.45-58.86,58.91-31,31-62,61.92-24.18,24.19-48.32,48.41-32.49,32.5-65,65a28.07,28.07,0,0,0-2.29,2.45,11.64,11.64,0,0,0,6,18.5,19.1,19.1,0,0,0,5.24.42Z"/><path class="cls-2" d="M358.92,320.41q0,22.91,0,45.82c0,.8,0,1.6,0,2.4-.17,3.67-2.56,6.17-6.24,6.26-4.8.11-9.6,0-14.39,0H263.68c-2.4,0-4.8,0-7.2-.05a5.74,5.74,0,0,1-5.68-3.64c-1-2.33-.24-4.37,1.36-6.17.37-.42.78-.8,1.18-1.2l81.23-81.28,13.23-13.23c.45-.45.92-.89,1.39-1.33a5.21,5.21,0,0,1,6.17-1.08,5.51,5.51,0,0,1,3.52,5.25c0,2.72,0,5.44,0,8.16q0,20,0,40.06Z"/></g></svg>