<svg id="Capa_1" data-name="Capa 1" xmlns="http://www.w3.org/2000/svg" viewBox="0 0 580.51 597.61"><defs><style>.cls-1{opacity:0.85;}.cls-2{fill:#db1515;}</style></defs><title>ICONOS GOOGLE</title><g class="cls-1"><path class="cls-2" d="M305.77,33.48c.57.63,1.34.37,2,.41,52.08,2.88,99.38,19.42,141.3,50.47,50.44,37.37,83.35,86.73,98.92,147.56a241.62,241.62,0,0,1,6.51,39,259.91,259.91,0,0,1,.23,45.05c-5.38,62.11-29.63,115.83-72.92,160.69-35.08,36.35-77.47,60.28-126.56,72.23a250.89,250.89,0,0,1-42.85,6.49,258.07,258.07,0,0,1-39.31-.22C217.24,550.31,167.7,530,125,493.56,82.72,457.46,54.78,412.2,41,358.29a244.73,244.73,0,0,1-6.52-38A237.92,237.92,0,0,1,33.07,294c1.23-69.88,25.37-130.56,73.94-181,34.79-36.15,76.88-60,125.61-72a244.83,244.83,0,0,1,41.87-6.57l7.42-.5c.46,0,1,.11,1.31-.38ZM71.22,294.72c.21,124.55,101.08,222.94,222.65,223.2,123.18.27,223.64-99.67,223.68-223.1,0-121.8-98.19-222.88-222.61-223.19C170.88,71.33,71.4,171.59,71.22,294.72Z"/><path class="cls-2" d="M294.42,506.88c-115.77.29-212.67-93.76-212.16-213.1A211.84,211.84,0,0,1,295,82.64c118.29.31,211.55,96.45,211.57,212.05C506.58,411.88,411.33,507.06,294.42,506.88ZM144.86,258.38c.13,3.53.13,8,.46,12.48A192.51,192.51,0,0,0,149.45,299c6.21,27.52,13.32,54.8,22,81.65a543.32,543.32,0,0,0,32,78.8,58.26,58.26,0,0,0,6.93,10.91c5.91,7.15,13.45,11,22.78,10.81a58.78,58.78,0,0,0,29.14-8.56c34-20.27,66.35-42.87,96.13-69a455.2,455.2,0,0,0,54-55.51c19.69-24.35,30-52.36,31.57-83.57a143.76,143.76,0,0,0-3.26-38.12,150.65,150.65,0,0,0-41.25-75.83,143,143,0,0,0-46.38-31,73,73,0,0,0-12.65-4.45c-5.46-1.18-11-2.17-16.46-3.22a176.47,176.47,0,0,0-27.79-3.54,141.69,141.69,0,0,0-27.47,1.82,143.7,143.7,0,0,0-41.74,13.71,151.34,151.34,0,0,0-45,34.59,145.38,145.38,0,0,0-28.81,48.32C147.25,223.19,144.75,240.1,144.86,258.38Z"/><path class="cls-2" d="M161.22,263.36A130.27,130.27,0,0,1,290.9,132.53c73.71-.48,131.46,58.08,131.37,130.1-.09,73-57.5,131.29-130.25,131.08C215.73,393.51,161.24,332.41,161.22,263.36Zm230.58.23c.13-53-41.61-99.62-98.46-100.47-53.3-.8-100.8,40.94-101,100.47-.22,55.84,43.69,99.26,99,99.49S391.73,319.53,391.8,263.58Z"/><path class="cls-2" d="M365.88,263.23c-.21,19.94-7.14,37.21-21.11,51.44a70,70,0,0,1-41.24,20.75c-21.35,3-40.67-2.26-57.67-15.4-13.84-10.7-22.26-24.94-25.55-42.11a75.9,75.9,0,0,1,6.07-47.47c7.5-16,19.75-27.34,35.76-34.64a72.12,72.12,0,0,1,37.9-6.18,70.72,70.72,0,0,1,43.74,20.79,73.84,73.84,0,0,1,21.58,44.18A85.11,85.11,0,0,1,365.88,263.23Z"/></g></svg>