<svg id="Capa_1" data-name="Capa 1" xmlns="http://www.w3.org/2000/svg" viewBox="0 0 587.88 597.61"><defs><style>.cls-1{opacity:0.85;}.cls-2{fill:#dc1616;}</style></defs><title>ICONOS GOOGLE</title><g class="cls-1"><path class="cls-2" d="M285.07,23.59h13.44a74,74,0,0,1,7.87.39,265.5,265.5,0,0,1,34,3.82,254.27,254.27,0,0,1,70.88,23.59c45.43,23,81.39,56.39,107.45,100.15,22.54,37.85,34.86,78.84,36.2,123,0,.67-.27,1.44.38,2v16.8c-.68.65-.37,1.5-.38,2.25-.07,5.44-.42,10.86-1,16.27a254.91,254.91,0,0,1-8,42.58A261.75,261.75,0,0,1,397.29,525a260.86,260.86,0,0,1-93.21,21c-.58,0-1.3-.32-1.74.4H286c-.37-.64-1-.38-1.51-.39a252.71,252.71,0,0,1-27.21-2.4,248.5,248.5,0,0,1-50.4-12.34Q124,501.19,75.34,427.57a254.72,254.72,0,0,1-37.1-90.06A243.16,243.16,0,0,1,33.72,305c-.35-5.17-1.2-10.3-1.14-15.5v-9.12a46.4,46.4,0,0,1,.44-6.88c.66-5.39.8-10.83,1.36-16.24a259.62,259.62,0,0,1,8.39-43.71C66,131.17,129.39,64.66,210.63,37.35a260.21,260.21,0,0,1,63.94-12.92C278.07,24.17,281.6,24.3,285.07,23.59ZM517.32,284.91c-.1-122.82-99.2-223.15-223.18-223.13C169.77,61.79,70.95,162.52,71,284.91,71.05,408.8,171.3,507,292.22,508.06,415.12,509.09,517.17,409.91,517.32,284.91Z"/><path class="cls-2" d="M294.18,72.67c119.29.48,213.72,97.43,212.09,215.22C504.64,405.38,408,498.54,291.34,497,176.12,495.56,81.64,401.49,82,284.2,82.36,168.11,176.2,73.05,294.18,72.67Zm39.24,46.87c-4.11-.33-8.13.36-12.16,1-6.38,1-12.81,1.89-19,3.79A131.1,131.1,0,0,0,285,130.92c-22.84,10.72-39.71,27.73-51.73,49.64-11.68,21.29-15.35,44.19-12.66,68.2a109.51,109.51,0,0,0,13.62,41.89c1.65,2.93,3.31,5.84,5.05,8.72.7,1.15.75,2.05-.38,2.89a6.81,6.81,0,0,0-.68.68L149,392.16c-2.38,2.37-4.78,4.72-7.14,7.12a13.55,13.55,0,0,0-4.23,10.82,14.3,14.3,0,0,0,4.36,9.11c2.8,2.85,5.61,5.7,8.47,8.5a19,19,0,0,0,3,2.42,13.2,13.2,0,0,0,9.83,2.05,15.65,15.65,0,0,0,8.38-4.8q36.09-36.2,72.19-72.38c4.69-4.7,9.29-9.49,13.89-14.27,3.22-3.34,6.39-6.72,9.57-10.1,1.58-1.68,1.39-1.41,3.12-.3l1.4.93A117.25,117.25,0,0,0,301,345a115.67,115.67,0,0,0,26.58,4.84c2.49.17,5,0,7.91,0-1.27-1.18-2.26-2.08-3.22-3A72.46,72.46,0,0,1,316,323.4a5.79,5.79,0,0,0-3.86-3.57c-2.44-.75-4.83-1.67-7.25-2.49a78.65,78.65,0,0,1-29.6-17.73c-15.9-15.3-25.66-33.69-27.74-55.88a89.24,89.24,0,0,1,2.39-31.86c1.32-4.87,3.27-9.52,5-14.24a6.87,6.87,0,0,0,.65-3.23c-.16-1.5,2.19-.81,2.25-2.28,0-.07.09-.13.13-.2.92-1.4,1.95-2.75,2.75-4.22a65.5,65.5,0,0,1,13.6-16.64c10.5-9.64,22.21-17.09,36.13-21,15-4.21,30.1-5,45.24-1.18,30.48,7.68,51.09,26.65,62.58,55.68a76.44,76.44,0,0,1,5.11,27,6.3,6.3,0,0,0,2.89,5.64,54.14,54.14,0,0,1,8.13,7.08,78.39,78.39,0,0,1,11.43,15.36,4.07,4.07,0,0,0,1.69,2,114.66,114.66,0,0,0,3.19-22.43,111.53,111.53,0,0,0-1.53-23.41,113.9,113.9,0,0,0-29.52-59.76c-16.54-17.87-37-29-60.67-34.16a96,96,0,0,0-23.56-2.32Zm49.22,241.9c31.32.65,66.26-24.24,66.42-66.84a66.23,66.23,0,0,0-65.65-66.42c-42-.21-67.34,33.31-67.54,66.52A66.31,66.31,0,0,0,382.64,361.44ZM319.37,449.7c-1.22-.06-2.46-.39-3.62.27A4.33,4.33,0,0,0,319.37,449.7Z"/><path class="cls-2" d="M319.37,449.7a4.33,4.33,0,0,1-3.62.27C316.91,449.31,318.15,449.65,319.37,449.7Z"/><path class="cls-2" d="M335.39,119.57c-.66.35-1.33,1.44-2,0Z"/><path class="cls-2" d="M382.56,281.8h44.15c5.3.1,7.31,1.66,7.88,6.94a52.92,52.92,0,0,1-.18,13.15c-.51,3.56-2.95,5.6-6.56,5.85-.72.05-1.44,0-2.16,0H339.32c-.72,0-1.44,0-2.16,0-3.87-.26-6.57-2.62-6.78-6.45-.24-4.3-.22-8.64-.06-12.95.15-3.94,3.81-6.68,7.38-6.64C352.65,281.91,367.61,281.8,382.56,281.8Z"/></g></svg>