<svg xmlns="http://www.w3.org/2000/svg" viewBox="0 0 522.72 522.72"><defs><style>.cls-1{opacity:0.85;}.cls-2{fill:#dc1616;}</style></defs><title>Recurso 3</title><g id="Capa_2" data-name="Capa 2"><g id="Capa_1-2" data-name="Capa 1"><g class="cls-1"><path class="cls-2" d="M250.08,0h22.56c.51.56,1.2.37,1.81.38a204.61,204.61,0,0,1,22,1.92,247.45,247.45,0,0,1,50.45,12c56.26,19.84,100.95,54.66,133.6,104.54,26.32,40.21,40.45,84.47,41.89,132.63,0,.68-.27,1.45.37,2V268.8c-.69.66-.37,1.51-.37,2.26a208.19,208.19,0,0,1-3.58,35.75,249.52,249.52,0,0,1-24.66,73.3Q444.85,473.83,344.8,508.79c-23.62,8.23-48.08,12.28-73,13.52-.83,0-1.76-.3-2.49.41H253.92c-.32-.52-.84-.33-1.3-.36-4.62-.34-9.24-.65-13.87-1a239.86,239.86,0,0,1-39.68-6.49c-48.39-12.1-90.23-35.83-124.84-71.73Q7.33,373.74.84,277.29c-.12-1.73,0-3.51-.84-5.13V250.08c.6-.46.45-1.17.51-1.77.46-5,.84-10,1.33-15a240.78,240.78,0,0,1,7-38.61,259.41,259.41,0,0,1,69.9-120.1A259.58,259.58,0,0,1,248.55.38C249.07.36,249.69.59,250.08,0ZM38.4,261.26c0,122.7,99.2,222.56,222.26,223.05s223.79-98.68,224-222.73A222.88,222.88,0,0,0,262.65,38C137.89,37.46,38.29,138.44,38.4,261.26Z"/><path class="cls-2" d="M49.4,261.07C49.31,144.63,144,48.48,262.59,49A212,212,0,0,1,473.68,261.49c-.19,118.06-96.2,212.09-212.72,211.86C144.21,473.11,49.4,378.12,49.4,261.07Zm46.85-57.53c1.65,1.08,2.91,1.93,4.2,2.72q45.08,27.87,90.17,55.73,34.78,21.51,69.51,43.1c2.74,1.71,5,1.91,7.65,0,2.85-2.05,5.93-3.78,8.93-5.63L429.49,205a5.38,5.38,0,0,0,1.95-1.52c-1.51-1-2.89-1.91-4.3-2.79q-22.33-13.82-44.69-27.6-57.51-35.59-115-71.22c-2.4-1.49-4.3-1.65-6.78-.11q-80.84,50.1-161.74,100.08C98.13,202.3,97.35,202.83,96.25,203.54ZM331,333.91a3.9,3.9,0,0,1-.68-.42c-1.48-1.58-1.49-1.6-3.22-.46q-7.72,5.09-15.42,10.17a6.25,6.25,0,0,0-2.63,2.71c-.43,1-.95,1.19-2,.72s-2.17.12-3.15.73l-8.15,5.06C286.4,358.23,277,364,267.66,369.89c-2.52,1.59-4.88,1.78-7.34.05-.4-.28-.82-.51-1.22-.77l-75.66-46.83C168.28,313,153.1,303.61,138,294.15a6.29,6.29,0,0,0-7.51,0c-12.12,7.61-24.32,15.09-36.49,22.63-.93.58-2,1-2.53,2.13a5,5,0,0,0,2,1.58q80.87,50,161.72,100.1a5.58,5.58,0,0,0,6.81-.07c5.15-3.36,10.44-6.52,15.67-9.76q73.23-45.29,146.45-90.58a5.74,5.74,0,0,0,1.93-1.47c-1.26-.83-2.37-1.61-3.51-2.32-9.6-5.92-19.22-11.79-28.79-17.75-3.55-2.22-7.11-2-10.75-.44a5.08,5.08,0,0,0-2.71,2.28,6.42,6.42,0,0,1-5.31,3.6,7.86,7.86,0,0,0-1.17.25c-1.93.57-3.27,1.65-3.3,3.86a2.41,2.41,0,0,1-1,2.28c-.25-.34-.44-.59-.61-.85-1-1.63-1-1.64-2.63-.65-2.52,1.56-5,3.13-7.53,4.7-3.6,2.25-7.18,4.51-10.79,6.73-.88.54-1.06,1-.38,1.86.89,1.09,1.67,2.26,2.5,3.39a21,21,0,0,1-3.52-2.87c-.52-.5-1-.72-1.65-.2-2.05,1.57-4.49,2.43-6.79,3.52C334.71,327.73,332,330,331,333.91Zm100.73-78.77c-.7-.52-1.06-.82-1.46-1.07q-13.21-8.26-26.44-16.51a4.66,4.66,0,0,0-5.39-.07c-.61.39-1.23.75-1.85,1.13q-64.29,39.86-128.57,79.75c-2.76,1.71-5.06,1.95-7.93.16q-47-29.28-94.13-58.4Q148.05,249,130.14,237.85c-2-1.24-3.82-1.73-6-.36-8.79,5.54-17.62,11-26.43,16.52-.43.27-1.09.4-1,1.24l4.63,2.88q79.52,49.22,159,98.48c2.58,1.6,4.63,1.68,7.23.05q32.31-20.24,64.75-40.27a13.86,13.86,0,0,0,4.5-3.87c.36-.53.76-1.12,1.51-1,1.86.3,3.2-.79,4.62-1.66,26.73-16.33,52.94-33.51,80-49.37C425.79,258.8,428.63,257,431.76,255.14Z"/></g></g></g></svg>