<svg xmlns="http://www.w3.org/2000/svg" viewBox="0 0 522.81 522.72"><defs><style>.cls-1{opacity:0.85;}.cls-2{fill:#dc1616;}</style></defs><title>Recurso 5</title><g id="Capa_2" data-name="Capa 2"><g id="Capa_1-2" data-name="Capa 1"><g class="cls-1"><path class="cls-2" d="M250.08,0h22.56c.51.56,1.2.37,1.81.38,4.64.07,9.25.52,13.87,1a243.27,243.27,0,0,1,39.1,7c47.65,12.6,88.78,36.5,122.72,72.22,45.64,48,69.65,105.45,72.46,171.65a259.81,259.81,0,0,1-28.52,128Q444.81,473.86,344.79,508.8c-23.62,8.22-48.08,12.27-73,13.51-.83,0-1.76-.3-2.49.41H253.92c-.32-.52-.84-.33-1.3-.36-4.62-.34-9.25-.65-13.87-1a239.86,239.86,0,0,1-39.68-6.49c-48.39-12.1-90.23-35.83-124.84-71.73Q7.33,373.74.84,277.29c-.12-1.72,0-3.5-.84-5.13V250.08c.6-.46.45-1.17.51-1.77.46-5,.84-10,1.33-15a240.58,240.58,0,0,1,7-38.61,259.41,259.41,0,0,1,69.9-120.1A259.58,259.58,0,0,1,248.55.38C249.07.36,249.69.59,250.08,0ZM38.39,261.27c0,122.73,99.24,222.56,222.27,223s223.66-98.53,224-222.5A222.9,222.9,0,0,0,262.65,38C137.87,37.46,38.28,138.46,38.39,261.27Z"/><path class="cls-2" d="M468.73,215.8A211.77,211.77,0,0,1,337.27,459.31c-100.88,38.63-214.5-4.19-264.53-101.39A211.67,211.67,0,0,1,142.59,85.55C230,26.21,343.14,42.16,410.77,110.61a5.38,5.38,0,0,1-2.08,1.47Q345,150.23,281.33,188.32a26.69,26.69,0,0,0-8.47,7.92q-34.5,49.79-69.19,99.45a35,35,0,0,0-2.21,3.42c-1.21,2.24-1.5,4.58,0,6.83a6.47,6.47,0,0,0,6.48,3.24c5-.57,10-1.1,15-1.67q9.53-1.08,19.05-2.21l22.38-2.66L287,300l23.1-2.69c7.62-.88,15.24-1.78,22.87-2.6,3.15-.33,6.17-.91,8.72-2.95a4.17,4.17,0,0,1,.61-.38c14-7.9,27.45-16.65,41.28-24.81s27.7-16.59,41.55-24.9l41.33-24.8A5.27,5.27,0,0,1,468.73,215.8ZM195.42,323.23a22.33,22.33,0,1,0-22.33,22.37A22.13,22.13,0,0,0,195.42,323.23Z"/><path class="cls-2" d="M329.15,261.93a1.35,1.35,0,0,1,.55-1c4.4-4.4,6.21-10,7.2-15.89a26.7,26.7,0,0,0-.19-10.5c-2.48-10.76-9.52-17.06-19.9-19.89-3.54-1-7.17-1.71-10.9-1.08-1.41.25-2.8.58-4.48.94.34-1.74.64-3.34,1-4.93a31.23,31.23,0,0,0-.66-15.18c-.58-1.95-.55-2,1.19-3l115-68.94c.35-.21.7-.4,1-.61,1.65-1,1.48-1.26,2.91.4a211.42,211.42,0,0,1,42.81,77.53c.67,2.19.75,1.84-1.36,3.1l-88.48,53c-8.1,4.85-16.21,9.65-24.26,14.58a3,3,0,0,1-4-.18,45.81,45.81,0,0,0-15.91-7.62A2.47,2.47,0,0,1,329.15,261.93Z"/><path class="cls-2" d="M336.24,278.66a10.77,10.77,0,0,1-5.78,2.68l-28.32,3.35-35.22,4.15c-3.57.42-7.15.79-10.71,1.28a2.45,2.45,0,0,1-2.77-1.31Q247.26,278.39,241,268a1.93,1.93,0,0,1,.13-2.42c.68-.89,1.29-1.83,1.94-2.74,13.45-18.88,26.37-38.13,39.57-57.18.73-1,1.47-2.09,2.28-3.08a7,7,0,0,1,3.64-2.43,12.5,12.5,0,0,1,.61,7.24,18.72,18.72,0,0,1-2.38,6.24c-1.14,2-2.43,4-3.46,6a6.78,6.78,0,0,0,4.82,10,7.53,7.53,0,0,0,4-.55A40,40,0,0,1,309.62,227a22.33,22.33,0,0,1,6.69,1.75c5.51,2.41,8.16,7.12,7.46,13.13a25.94,25.94,0,0,1-2.45,8.22,41.25,41.25,0,0,1-8.76,12.21,7.25,7.25,0,0,0-2.51,4.5c-.51,4.55,2.76,7.78,7.68,7.55A34,34,0,0,1,330.24,276,37.89,37.89,0,0,1,336.24,278.66Z"/></g></g></g></svg>