<svg id="Capa_1" data-name="Capa 1" xmlns="http://www.w3.org/2000/svg" viewBox="0 0 599.88 597.61"><defs><style>.cls-1{opacity:0.85;}.cls-2{fill:#dc1616;}</style></defs><title>ICONOS GOOGLE</title><g class="cls-1"><path class="cls-2" d="M292.91,41.8h14.88c.57.65,1.34.36,2,.38a259.3,259.3,0,0,1,50.29,6.76q72.37,17.21,125,69.78a262,262,0,0,1,74.33,216.87A251.29,251.29,0,0,1,547,388.92Q510.4,490.53,413.59,538.53c-32,15.83-66.07,24.09-101.76,25.61a12.54,12.54,0,0,0-3.56.38H291.95a10.16,10.16,0,0,0-1.4-.26c-5.35-.24-10.69-.58-16-1.09a254.62,254.62,0,0,1-39.85-7,261.62,261.62,0,0,1-178-158.4,255.79,255.79,0,0,1-16.77-73.56c-.23-2.95-.36-5.9-.6-8.85,0-.5.29-1.35-.74-1.38V296.68c.53-.51.38-1.18.44-1.8.65-7.49,1-15,1.84-22.46a251.22,251.22,0,0,1,11-50Q80.94,134.81,158.12,84.05a254.05,254.05,0,0,1,91.12-37,264,264,0,0,1,41.64-4.83C291.55,42.15,292.33,42.45,292.91,41.8Zm230.4,261.39c0-123.12-99.74-222.87-222.8-223.1C178.65,79.87,77,178.23,77.06,303.27c0,124.15,100.38,222.71,222.33,223.09C423.68,526.75,523.44,426.06,523.31,303.19Z"/><path class="cls-2" d="M88,303.18c.29-117.52,95.38-212.3,212.61-212.1,117.65.2,213.16,96.54,211.73,214.85-1.39,114.84-95.06,210.27-213.76,209.44C181.94,514.55,88.17,419.94,88,303.18ZM226.84,462.24h33.59c2.35,0,2.35,0,2.37-2.37,0-.56,0-1.12,0-1.68,0-15.36,0-30.71,0-46.07A60.49,60.49,0,0,1,263.9,399c3.8-17,21.17-30.73,40.37-28.5a37.57,37.57,0,0,1,31.93,26.7A44.94,44.94,0,0,1,337.8,410q0,24.72,0,49.43c0,3,0,3,3,3h57.35c3.12,0,6.24,0,9.36,0,1.87,0,2.24-.34,2.46-2.18,1-8.17,1.93-16.35,2.9-24.52q1.58-13.33,3.17-26.67,1.53-12.86,3-25.72,1.59-13.45,3.17-26.91,1.53-13,3.08-26,1.59-13.33,3.18-26.66c.88-7.3,1.7-14.61,2.68-21.89.36-2.63-.64-4.13-2.87-5.41Q372.64,244.66,317,212.75c-4.65-2.66-9.3-5.31-13.94-8a4.89,4.89,0,0,0-5.43,0c-.48.29-1,.55-1.46.83l-104.45,59.9L171.51,277c-2.46,1.41-2.47,1.47-2.12,4.15.24,1.82.42,3.65.64,5.48q1.53,12.86,3.06,25.71L176.25,339l3.17,26.67q1.53,12.86,3.05,25.71,1.6,13.45,3.18,26.91,1.54,13.1,3.08,26.19c.64,5.4,1.33,10.79,1.93,16.19.14,1.24.68,1.68,1.85,1.57.56-.05,1.12,0,1.68,0ZM448.91,268.41c12.84.08,19.8-12.76,16.08-22.93-1.63-4.45-4.79-7.41-8.78-9.76q-43.83-25.78-87.61-51.62-32.75-19.31-65.5-38.61c-3.3-1.94-2.24-2-5.73.08q-68.81,40.54-137.6,81.11c-5.51,3.25-11,6.48-16.51,9.77a17.08,17.08,0,0,0,4.05,31.43c5.2,1.26,9.88.16,14.45-2.54q67.82-40.1,135.67-80.14c2-1.21,3.55-1.33,5.65-.08Q346.49,210.9,390,236.5q24.48,14.44,49,28.88A18.41,18.41,0,0,0,448.91,268.41Z"/></g></svg>