<svg id="Capa_1" data-name="Capa 1" xmlns="http://www.w3.org/2000/svg" viewBox="0 0 593.88 597.61"><defs><style>.cls-1{opacity:0.85;}.cls-2{fill:#db1515;}</style></defs><title>ICONOS GOOGLE</title><g class="cls-1"><path class="cls-2" d="M34.57,287.15c1,.31.77-.55.8-1,.21-2.71.35-5.43.56-8.14A252.27,252.27,0,0,1,58.8,190.12Q97,108.14,177.42,66.39a261.11,261.11,0,0,1,123-28.56c63.74,1.51,120,22.87,168,64.84,40.51,35.4,67.38,79.46,80.94,131.56A258.45,258.45,0,0,1,556.46,276a251,251,0,0,1,.65,36c-2.92,55.55-21.41,105.44-56,149-36.27,45.7-82.87,76-139.29,90.94a249.87,249.87,0,0,1-39.61,7,260.23,260.23,0,0,1-43.37.74,255.75,255.75,0,0,1-96.91-25.77Q102.25,494.53,62.21,415.08a251.72,251.72,0,0,1-23.43-72,264.72,264.72,0,0,1-3.37-30.49c-.12-2.25.1-4.58-.84-6.74ZM296.32,75.91C174.64,75.73,74.54,173.57,73.13,296.33A222.84,222.84,0,0,0,295.72,522.16c124.7.22,222.43-100.19,223.67-220.68C520.69,176.69,419.73,75.74,296.32,75.91Z"/><path class="cls-2" d="M467.31,424a24.35,24.35,0,0,0-7.2-14.39,17,17,0,0,0-13.78-4.92c-3.78.35-6.75,2.4-9.34,5-3.23,3.21-6.31,6.58-9.53,9.81C413.68,433.33,400,447.2,386,460.85c-5.6,5.47-6.24,11.62-2.91,18.3a19.07,19.07,0,0,0,7.12,7.93c.47.29.92.63,1.37,1,0,0,0,.14,0,.22-72.2,38.72-187.25,33.69-260.13-55.75C59.19,343.79,70.4,213.39,158.14,138c86.53-74.31,215.44-66.86,292.67,15.75C529.73,238.2,519.94,355.59,467.31,424ZM395.56,294.8a5.7,5.7,0,0,0,.44-2.88q0-56.27,0-112.55a26.63,26.63,0,0,0-.76-6.41,24.35,24.35,0,0,0-23.69-18.8c-6.08-.07-12.16,0-18.24,0l-142.31,0a28.52,28.52,0,0,0-5.48.53,23.82,23.82,0,0,0-19.34,21.61c-.47,5.51-.24,11-.26,16.54q-.13,35.75-.07,71.51,0,29.76,0,59.51t0,59.51c0,3.11,0,6.23.29,9.34a23.17,23.17,0,0,0,18.41,20.75,55,55,0,0,0,11.93.82q77,0,154.06,0a29.32,29.32,0,0,0,7.36-.9c11-2.84,16.41-11.44,17.25-18.79.46-4.06.55-8.14.63-12.2.21-10.8.1-21.6.17-32.39a3.59,3.59,0,0,0-2.54-3.85c-3.89-1.47-7.72-3.07-11.59-4.6-2.58-1-2.59-1-2.6,1.75q0,20.64,0,41.28c0,1.2,0,2.4-.08,3.6-.41,6.14-3.44,9.19-9.54,9.48-2.47.12-5,0-7.43,0-14.64-.16-29.27-.1-43.9.26-6.47.16-12.95.06-19.43-.12-12.23-.34-24.47-.27-36.71-.21-13.28.07-26.56.07-39.83.21-3.35,0-6.71.2-10.07.15-5.48-.08-8.61-2.84-9.44-8.23a45.47,45.47,0,0,1-.38-6.94q0-100.07,0-200.14c0-1.36,0-2.73.13-4.08.44-4.55,3-7.09,7.54-7.55,1.11-.11,2.24-.14,3.35-.14H367.32c1.44,0,2.88,0,4.31.18,4.36.44,6.4,2.36,7.29,6.63a30.25,30.25,0,0,1,.35,6.21q0,49.43,0,98.87a13,13,0,0,0,.44,4,3.07,3.07,0,0,0,1.6,2C385.95,291,390.69,292.85,395.56,294.8ZM323,420.65a4.87,4.87,0,0,0,1.59,2.15c6.15,6.29,12.26,12.61,18.48,18.84,5.42,5.43,10.88,10.83,16.47,16.09,6.31,5.94,14.49,5.93,21,.18.84-.74,1.61-1.56,2.4-2.35,8.19-8.21,16.34-16.45,24.56-24.63q12.58-12.52,25.27-24.94c5.3-5.2,8.13-11.26,7.51-18.9-.57-7.08-.73-14.21-1-21.31-.28-8.31-.45-16.62-.7-24.93-.08-2.64-.15-5.28-.39-7.9-.55-6-2.8-11.12-7.45-15.06a27.12,27.12,0,0,0-7.64-4.44L375.9,294.69a21.51,21.51,0,0,0-6.75-1.55c-7.2-.4-12.93,4.48-14.11,9.93a19.5,19.5,0,0,0,.91,11.53c2.89,7.31,8.3,11.94,15.54,14.68,8.59,3.25,17.16,6.57,25.74,9.87,3.25,1.25,4.1,2.45,4,6-.08,4.55-.15,9.11-.25,13.66-.18,8.07,0,16.15-.13,24.23-.05,4.55.64,9.08,0,13.65-1,7.07-3.84,13.15-9.38,17.81s-12,6.49-19.12,6.33c-15-.33-30.07-.09-45.1-.12ZM289.69,363v0H334.3a19.11,19.11,0,0,0,4.29-.37,8.49,8.49,0,0,0,6.8-8.19,8.94,8.94,0,0,0-6.29-8.68,19.23,19.23,0,0,0-5.47-.53l-37.17,0H244.89a16.31,16.31,0,0,0-4.28.43,8.37,8.37,0,0,0-6.47,8.43,8.46,8.46,0,0,0,6.66,8.54,18.26,18.26,0,0,0,4.52.38Zm-.95-87.43v0h1.68q21.58,0,43.17-.08a15.08,15.08,0,0,0,8.44-2.29,7.09,7.09,0,0,0,3.15-4.35,8.9,8.9,0,0,0-8.27-11c-.64,0-1.28,0-1.92,0H250.81c-2.88,0-5.76-.06-8.63.1a8.3,8.3,0,0,0-7.93,6.78c-.74,4.68,1.28,8.43,5.44,10.06a13.87,13.87,0,0,0,5.17.84Q266.8,275.54,288.74,275.56Zm.73,25.95H245.58c-1,0-2.08,0-3.12.06-4.62.34-8,3.52-8.26,7.82-.34,5,2.09,8.35,6.86,9.5a15,15,0,0,0,3.56.39l68.59,0c6.88,0,13.75,0,20.63,0a16.36,16.36,0,0,0,6.55-1.23c3.61-1.54,5.08-4.36,5.07-8a7.81,7.81,0,0,0-5.5-7.64,18.58,18.58,0,0,0-6.6-1Q311.41,301.53,289.47,301.51ZM261,206.5h0c-6.07,0-12.14-.06-18.21,0a8.51,8.51,0,0,0-8.09,5.69,9,9,0,0,0,2.44,9.84,10.32,10.32,0,0,0,6.93,2.17q16.89,0,33.79,0a13.79,13.79,0,0,0,3.55-.44,8.17,8.17,0,0,0,6.19-6.58c.61-4.24-.83-7.66-4-9.5a10.36,10.36,0,0,0-5.3-1.22C272.46,206.52,266.71,206.5,261,206.5Z"/></g></svg>