<svg xmlns="http://www.w3.org/2000/svg" viewBox="0 0 522.81 522.72"><defs><style>.cls-1{opacity:0.85;}.cls-2{fill:#dc1616;}</style></defs><title>Recurso 4</title><g id="Capa_2" data-name="Capa 2"><g id="Capa_1-2" data-name="Capa 1"><g class="cls-1"><path class="cls-2" d="M250.08,0h22.56c.51.56,1.2.37,1.8.38,4.65.07,9.26.52,13.88,1a243.27,243.27,0,0,1,39.1,7c47.64,12.6,88.78,36.49,122.72,72.22,45.64,48,69.65,105.45,72.46,171.65a259.81,259.81,0,0,1-28.52,128Q444.81,473.86,344.79,508.8c-23.62,8.22-48.08,12.27-73,13.51-.83,0-1.76-.3-2.49.41H253.92c-.32-.52-.84-.33-1.3-.36-4.62-.34-9.25-.65-13.87-1a239.86,239.86,0,0,1-39.68-6.49c-48.39-12.1-90.23-35.83-124.84-71.73Q7.33,373.74.84,277.29c-.12-1.72,0-3.5-.84-5.13V250.08c.6-.46.45-1.17.51-1.77.46-5,.84-10,1.33-15a240.58,240.58,0,0,1,7-38.61,259.41,259.41,0,0,1,69.9-120.1A259.58,259.58,0,0,1,248.55.38C249.07.36,249.69.59,250.08,0Zm11.39,484.32c122.51,0,222.9-98.77,223.2-222.6A222.88,222.88,0,0,0,262.8,38C138.23,37.39,38.9,137.9,38.39,260.16,37.86,383.74,137.78,484.24,261.47,484.32Z"/><path class="cls-2" d="M410.77,110.66a6.48,6.48,0,0,1-2,1.35q-63.87,38.27-127.76,76.49a25.15,25.15,0,0,0-8,7.43Q242,240.8,210.77,285.55c-2.56,3.68-5.15,7.33-7.7,11a22.11,22.11,0,0,0-1.78,2.84c-2.42,4.93,1,10.18,6.46,9.75,5.1-.4,10.18-1.08,15.26-1.66q9.53-1.08,19.05-2.2l22.14-2.63L287.06,300q11.55-1.35,23.1-2.69T333,294.7c3.05-.33,6-.85,8.5-2.86a6.25,6.25,0,0,1,.82-.51c14-7.91,27.45-16.65,41.28-24.81S411.2,250,425,241.75L466.3,217a5.57,5.57,0,0,1,2.32-1.15c20.58,88.16-20.41,195.46-123,240.08-100.15,43.55-217.21,4.06-270.44-93.39C22.61,266.3,52.47,145.62,143.65,84.8,232.72,25.38,345.49,43.94,410.77,110.66ZM102.1,304.94h.13q0,30.46,0,60.93,0,4.44,0,8.88a6,6,0,0,0,3.67,5.7,8.69,8.69,0,0,0,3.76.54c11.83,0,23.67.05,35.5.05h95.24c.72,0,1.44,0,2.16,0a5.88,5.88,0,0,0,5.15-4.37,6.13,6.13,0,0,0-1.8-6.34l-12.14-12.62-91.55-95.31q-14.7-15.31-29.4-30.62c-2.31-2.41-4.27-2.88-6.86-1.84a5.74,5.74,0,0,0-3.91,6.19c0,.72,0,1.44,0,2.16Z"/><path class="cls-2" d="M329.14,261.9a1.48,1.48,0,0,1,.58-1c4.45-4.47,6.25-10.12,7.22-16.14a26.39,26.39,0,0,0-.24-10.25c-2.49-10.77-9.53-17.05-19.92-19.88-3.54-1-7.17-1.7-10.9-1.06-1.4.24-2.79.58-4.45.92.35-1.83.67-3.51,1-5.18a30.78,30.78,0,0,0-.71-15c-.57-1.93-.54-1.94,1.22-3l114.56-68.7c3.11-1.87,3.12-1.86,5.44.86a211.06,211.06,0,0,1,41.5,75.57c.91,3,1.29,2.29-1.59,4q-56.18,33.65-112.34,67.28c-1.39.84-2.35,1.05-3.8-.06a45.62,45.62,0,0,0-16.09-7.74C330.08,262.43,329.5,262.4,329.14,261.9Z"/><path class="cls-2" d="M288.71,200.12a15.31,15.31,0,0,1-.82,11.41,75,75,0,0,1-4,7.11,8.49,8.49,0,0,0-1.32,4.05,6.55,6.55,0,0,0,8.23,6.79c2.86-.73,5.61-1.84,8.56-2.22,4.46-.57,8.92-.87,13.33.28a25.38,25.38,0,0,1,3.63,1.22c5.36,2.3,7.94,6.65,7.44,12.89a23.63,23.63,0,0,1-2.37,8.25,41.24,41.24,0,0,1-8.88,12.41,7.21,7.21,0,0,0-2.48,4.51c-.49,4.56,2.77,7.75,7.72,7.52A34.48,34.48,0,0,1,330.28,276a44.21,44.21,0,0,1,5.86,2.58,8.77,8.77,0,0,1-5.48,2.72c-5.31.68-10.63,1.26-15.94,1.89l-22.14,2.62-22.85,2.66c-4.44.52-8.89,1-13.32,1.62a2.71,2.71,0,0,1-3.13-1.52q-5.94-10.12-12-20.18a2.52,2.52,0,0,1,.2-3.23q4.29-5.93,8.46-11.93,16.54-24,33-48c1.27-1.85,2.52-3.72,4.64-4.73C287.88,200.38,288.18,200.3,288.71,200.12Z"/><path class="cls-2" d="M114.3,250.69,227.35,368.4c-.39.87-1,.56-1.53.57-27.1,0-54.2.08-81.31,0-9,0-18.06,0-27.1-.09H115.5a1.05,1.05,0,0,1-1.19-1.17c0-.56,0-1.12,0-1.68q0-56.83-.1-113.69C114.18,252,114.22,251.67,114.3,250.69Z"/></g></g></g></svg>