<svg id="Capa_1" data-name="Capa 1" xmlns="http://www.w3.org/2000/svg" viewBox="0 0 567.34 546.78"><defs><style>.cls-1{opacity:0.85;}.cls-2{fill:#dc1616;}</style></defs><title>ICONOS GOOGLE</title><g class="cls-1"><path class="cls-2" d="M545,263.61v19.2a20.06,20.06,0,0,0-.41,3.79,149.33,149.33,0,0,1-.93,15.07,253.54,253.54,0,0,1-9,45.78,261,261,0,0,1-234,187.34c-.47,0-1.17-.34-1.37.5h-24c-1.67-.13-3.33-.32-5-.39a259.4,259.4,0,0,1-106-28.62Q87.07,465.86,48.66,387.59a254.3,254.3,0,0,1-25.5-98.86,59.32,59.32,0,0,0-.86-7.85V267a45.51,45.51,0,0,0,.86-7.59,248.42,248.42,0,0,1,5.3-39.88c11.21-51.77,35.62-96.38,73.83-133,52-49.86,114.48-74.2,186.58-73.56a247.85,247.85,0,0,1,40.3,3.85A253.06,253.06,0,0,1,403.8,42c50.28,26.36,88.39,64.85,113.9,115.58a249,249,0,0,1,26.95,104.29C544.67,262.42,544.4,263.13,545,263.61ZM284,51C162.27,50.78,62.2,148.75,60.81,271.47A223,223,0,0,0,281.45,497.2C406,498.51,506,398.52,507.07,276.2,508.19,151.3,407.14,50.84,284,51Z"/><path class="cls-2" d="M496.07,274.07c.15,116.76-95,213.22-214.16,212.14-117.15-1.06-211.39-97-210.11-214.53,1.28-117.09,97.46-211.1,214.66-209.75C402,63.27,496.13,157.48,496.07,274.07ZM216.84,168.76a9.21,9.21,0,0,1,3-.23H319c4,0,8,0,12,0,4.55.06,7.13,2.51,7.48,7,0,.64,0,1.28,0,1.92q0,12.24.06,24.48c0,2.23,0,2.25,2.21,2.25h22.8c4.18,0,4.2,0,4.2-4.31q0-22.08,0-44.16a30.5,30.5,0,0,0-.36-4.54,13.57,13.57,0,0,0-10.81-11.46,24.89,24.89,0,0,0-5.48-.47H175.43c-.8,0-1.6,0-2.4,0-7.87.37-12.74,4.71-14.09,12.47a26.21,26.21,0,0,0-.27,4.54q0,99.47,0,198.95c0,1.68-.08,3.36,0,5a14.33,14.33,0,0,0,7.65,12.49c.56.31,1.13.6,1.7.89l107.31,55.66a15.71,15.71,0,0,0,2.4,1.07,7.54,7.54,0,0,0,10.15-6.21,10.45,10.45,0,0,0,.15-2.38c-.09-1.6-.14-3.2-.15-4.8q0-22.32-.06-44.64c0-4.13.52-4.65,4.72-4.64l58.08,0c1,0,2.08,0,3.12-.06,6.94-.46,12-4.66,13.49-11.28a24.53,24.53,0,0,0,.54-5.48q0-37.44,0-74.88c0-2.41,0-2.42-2.55-2.42q-11.88,0-23.76,0c-3.19,0-3-.38-3,3q0,25.92,0,51.84a23.1,23.1,0,0,1-.3,4.06c-.64,3.61-2.57,5.49-6.24,5.9a39.12,39.12,0,0,1-4.31.17q-18,0-36-.05c-.72,0-1.44,0-2.16-.05a1.06,1.06,0,0,1-1.19-1.17c0-.56,0-1.12,0-1.68q0-10.92,0-21.84,0-37,0-73.91c0-8.24.08-16.48,0-24.72a14.66,14.66,0,0,0-7.94-13.33c-.56-.32-1.12-.61-1.69-.91l-13.67-7q-22.51-11.55-45-23.12A8.47,8.47,0,0,1,216.84,168.76Zm187.9,53a1.29,1.29,0,0,1-1.25.4c-22.71-.06-45.43.15-68.14-.1-4.48,0-9-.2-13.43.13-6.84.5-11.9,4.81-13.77,11.46-2.35,8.36,2.26,18.68,12.81,20.14a28.14,28.14,0,0,0,3.83.18l77.27,0c.89,0,1.86-.26,2.71.29a4.15,4.15,0,0,1-1.22,1.61c-2.71,2.72-5.44,5.42-8.15,8.14-4,4-8,7.84-11.81,11.94a15,15,0,0,0,2.91,22.77c6,3.75,13.21,2.88,18.44-2.32q20.16-20,40.27-40.15c2.66-2.66,5.33-5.3,7.91-8a14,14,0,0,0,4-11.39,15.24,15.24,0,0,0-4.8-9.42c-5-5-9.91-10-14.89-15Q421.24,196.29,405,180.12a15.35,15.35,0,0,0-10.28-4.57c-7-.39-13.57,4.56-14.73,11.2a16.11,16.11,0,0,0,4,14c.74.84,1.58,1.59,2.37,2.38q8.11,8,16.21,16A10,10,0,0,1,404.74,221.79Z"/></g></svg>