<?xml version="1.0" encoding="UTF-8"?>
<svg width="261px" height="525px" viewBox="0 0 261 525" version="1.1" xmlns="http://www.w3.org/2000/svg" xmlns:xlink="http://www.w3.org/1999/xlink">
    <!-- Generator: Sketch 52.5 (67469) - http://www.bohemiancoding.com/sketch -->
    <title>Untitled</title>
    <desc>Created with Sketch.</desc>
    <defs>
        <polygon id="path-1" points="0 0.9358 258.483208 0.9358 258.483208 523.4148 0 523.4148"></polygon>
    </defs>
    <g id="Page-1" stroke="none" stroke-width="1" fill="none" fill-rule="evenodd">
        <g id="open-close-cube">
            <path d="M258.48,52.4889 L258.48,474.8889 C258.39,474.9719 258.3,475.0549 258.21,475.1379 C211.897,474.0499 169.913,460.0789 133.128,431.8419 C96.43,403.6699 71.211,367.2929 57.779,322.7749 C58.22,322.7359 58.455,322.6959 58.689,322.6959 C72.968,322.6929 87.247,322.6899 101.526,322.6979 C103.263,322.6989 103.766,323.2179 103.813,325.1669 C103.867,327.4049 103.804,329.6459 103.832,331.8849 C103.915,338.9489 103.523,346.0289 104.415,353.0649 C105.075,358.2749 107.022,362.8809 111.286,366.1929 C114.721,368.8629 118.672,369.9449 122.89,368.7369 C125.397,368.0189 127.756,366.7249 129.879,365.1139 C140.387,357.1389 150.9,349.1699 161.404,341.1899 C171.783,333.3049 182.16,325.4169 192.527,317.5149 C198.057,313.2999 203.555,309.0419 209.085,304.8249 C214.013,301.0679 218.964,297.3409 223.906,293.5999 C228.757,289.9269 233.612,286.2599 238.459,282.5809 C241.477,280.2889 243.948,277.4929 245.571,274.0719 C247.697,269.5859 248.708,264.8549 247.947,259.8639 C247.382,256.1619 246.251,252.6869 244.222,249.4709 C241.885,245.7679 238.371,243.3719 235.061,240.7549 C230.973,237.5219 226.755,234.4539 222.611,231.2929 C216.706,226.7879 210.827,222.2489 204.917,217.7509 C200.139,214.1149 195.316,210.5389 190.543,206.8979 C183.568,201.5769 176.63,196.2069 169.657,190.8849 C163.814,186.4259 157.931,182.0219 152.086,177.5659 C144.501,171.7819 136.936,165.9689 129.358,160.1739 C127.131,158.4699 124.647,157.2329 121.873,156.8899 C117.337,156.3309 113.43,157.8859 110.251,161.0999 C105.309,166.0959 103.586,172.3369 103.751,179.1639 C103.915,185.9609 103.938,192.7579 103.839,199.5519 C103.801,202.2049 103.628,203.6509 99.711,203.6269 C86.194,203.5459 72.674,203.5859 59.156,203.6159 C58.151,203.6179 57.971,203.4369 58.274,202.4399 C62.087,189.8809 66.88,177.7169 72.833,166.0119 C83.068,145.8849 96.262,127.9429 112.424,112.1699 C121,103.8009 130.215,96.2179 139.987,89.2969 C165.8,71.0129 194.295,59.2139 225.488,53.9419 C233.569,52.5759 241.708,51.7049 249.885,51.1909 C250.519,50.9139 251.152,50.7209 251.783,51.1969 C252.004,51.0829 252.226,50.9699 252.448,50.8569 C253.762,51.3149 255.11,50.9879 256.437,50.9789 C257.583,50.9709 258.403,51.1619 258.48,52.4889" id="Fill-1" fill="#DB1516"></path>
            <g id="Group-5" transform="translate(0.000000, 0.914000)">
                <mask id="mask-2" fill="white">
                    <use xlink:href="#path-1"></use>
                </mask>
                <g id="Clip-4"></g>
                <path d="M258.2398,523.4148 L257.7608,523.4148 C257.6098,523.1458 257.3468,523.2198 257.1218,523.2198 C252.4248,523.2158 247.7358,523.0538 243.0488,522.7188 C239.3798,522.4568 235.7198,522.1318 232.0628,521.7458 C227.8948,521.3068 223.7568,520.6738 219.6128,520.0628 C214.4148,519.2978 209.2598,518.2898 204.1488,517.1138 C192.9738,514.5438 181.9828,511.3398 171.2198,507.3478 C163.5888,504.5168 156.0748,501.4068 148.7298,497.9228 C141.8708,494.6678 135.1808,491.0668 128.6498,487.1758 C121.4848,482.9068 114.5298,478.3328 107.7818,473.4278 C99.2918,467.2558 91.2328,460.5568 83.5568,453.4168 C79.9188,450.0328 76.2128,446.6878 72.9548,442.9018 C72.0718,441.8758 70.9988,441.0168 70.0948,440.0078 C67.7188,437.3568 65.3948,434.6588 63.0378,431.9918 C59.9098,428.4508 56.9148,424.7918 54.0578,421.0368 C49.1598,414.5988 44.5258,407.9698 40.2158,401.1128 C36.4058,395.0538 32.8698,388.8428 29.5478,382.5108 C26.2058,376.1428 23.2368,369.5958 20.4628,362.9598 C17.0678,354.8438 14.0728,346.5868 11.5168,338.1688 C9.2518,330.7018 7.2698,323.1618 5.7608,315.5028 C4.9458,311.3608 4.0288,307.2298 3.4328,303.0538 C2.7198,298.0388 1.9498,293.0258 1.6098,287.9588 C1.3088,283.4568 0.8628,278.9638 0.4688,274.4668 C0.4318,274.0548 0.4978,273.5698 -0.0002,273.3348 L-0.0002,255.3348 C0.5748,251.5828 0.6708,247.7908 0.9178,244.0138 C1.7088,231.9548 3.3478,220.0128 5.8328,208.1928 C10.6268,185.3848 18.3848,163.6188 29.0428,142.8918 C42.7628,116.2078 60.5208,92.5568 82.3578,71.9718 C102.2788,53.1928 124.6058,37.9318 149.3128,26.1478 C179.8028,11.6058 211.9288,3.4218 245.6338,1.3558 C247.1148,1.2648 248.6318,1.4198 250.0798,0.9358 L258.2398,0.9358 C258.3198,3.0048 258.4638,5.0748 258.4688,7.1448 C258.4928,17.1348 258.4798,27.1248 258.4788,37.1148 C258.4788,38.5568 258.1258,38.9888 256.6528,38.9498 C255.1488,38.9098 253.6588,38.8818 252.1738,39.1818 C249.8708,39.3108 247.5738,39.4448 245.2758,39.5648 C238.5318,39.9168 231.8378,40.7508 225.1838,41.8588 C213.7648,43.7588 202.5598,46.5488 191.5398,50.1078 C181.7898,53.2568 172.3118,57.0738 163.0798,61.4938 C157.9488,63.9508 152.9758,66.7188 148.0708,69.6118 C142.5168,72.8878 137.1198,76.3918 131.8938,80.1648 C127.2758,83.4988 122.7608,86.9608 118.4618,90.7008 C115.9528,92.8828 113.2998,94.9208 110.9718,97.2818 C108.4008,99.8898 105.6038,102.2498 103.1158,104.9568 C99.3798,109.0208 95.5718,113.0178 91.9498,117.1888 C88.8968,120.7048 85.9398,124.3048 83.1448,128.0188 C77.5608,135.4378 72.3408,143.1118 67.6968,151.1708 C63.7278,158.0588 60.1088,165.1148 56.8818,172.3768 C53.4278,180.1498 50.4738,188.1058 48.0108,196.2448 C44.2888,208.5448 41.6978,221.0778 40.1578,233.8358 C39.5108,239.1938 39.0658,244.5708 38.7148,249.9468 C38.5528,252.4138 38.4278,254.9158 38.5268,257.4168 C38.6578,260.6868 38.6738,263.9728 38.5128,267.2408 C38.3848,269.8638 38.5898,272.4728 38.7108,275.0708 C38.8878,278.8938 39.1458,282.7238 39.5838,286.5398 C39.8468,288.8488 40.1198,291.1668 40.3938,293.4728 C40.8258,297.0978 41.6038,300.6818 42.2708,304.2758 C43.9758,313.4608 46.3658,322.4708 49.2698,331.3448 C52.4578,341.0788 56.2808,350.5588 60.7868,359.7568 C73.6358,385.9878 90.8998,408.8918 112.6548,428.3908 C132.4948,446.1738 154.8188,459.9478 179.5858,469.7688 C189.5208,473.7078 199.6938,476.8818 210.0838,479.3768 C215.7818,480.7448 221.5388,481.8228 227.3148,482.7638 C233.9458,483.8418 240.6418,484.4978 247.3388,484.9318 C250.9418,485.1648 254.5758,485.4088 258.2048,485.2498 C258.2968,485.6518 258.3878,486.0538 258.4798,486.4548 L258.4798,522.6948 C258.2688,522.8918 258.1958,523.1338 258.2398,523.4148" id="Fill-3" fill="#DB1516" mask="url(#mask-2)"></path>
            </g>
            <path d="M252.1773,40.0959 C253.6583,39.7959 255.1493,39.8239 256.6533,39.8639 C258.1253,39.9029 258.4793,39.4709 258.4793,38.0289 C258.4803,28.0389 258.4923,18.0489 258.4693,8.0589 C258.4633,5.9889 258.3203,3.9189 258.2393,1.8489 C258.7413,2.1159 258.4643,2.5779 258.4653,2.9289 C258.4823,19.4489 258.4803,35.9689 258.4803,52.4889 C258.4033,51.1619 257.5823,50.9709 256.4373,50.9789 C255.1103,50.9879 253.7623,51.3149 252.4473,50.8569 C253.8783,50.8489 255.3113,50.8159 256.7413,50.8419 C257.8533,50.8629 258.3183,50.3909 258.2973,49.2629 C258.2533,46.7959 258.2903,44.3279 258.2813,41.8599 C258.2773,40.4559 258.0283,40.2409 256.5823,40.2009 C255.1153,40.1599 253.6413,40.3349 252.1773,40.0959" id="Fill-6" fill="#FFFFFF"></path>
            <path d="M252.1773,40.0959 C253.6583,39.7959 255.1493,39.8239 256.6533,39.8639 C258.1253,39.9029 258.4793,39.4709 258.4793,38.0289 C258.4803,28.0389 258.4923,18.0489 258.4693,8.0589 C258.4633,5.9889 258.3203,3.9189 258.2393,1.8489 C258.7413,2.1159 258.4643,2.5779 258.4653,2.9289 C258.4823,19.4489 258.4803,35.9689 258.4803,52.4889 C258.4033,51.1619 257.5823,50.9709 256.4373,50.9789 C255.1103,50.9879 253.7623,51.3149 252.4473,50.8569 C253.8783,50.8489 255.3113,50.8159 256.7413,50.8419 C257.8533,50.8629 258.3183,50.3909 258.2973,49.2629 C258.2533,46.7959 258.2903,44.3279 258.2813,41.8599 C258.2773,40.4559 258.0283,40.2409 256.5823,40.2009 C255.1153,40.1599 253.6413,40.3349 252.1773,40.0959 Z" id="Stroke-8" stroke="#FFFFFF"></path>
            <path d="M258.48,487.3688 C258.388,486.9678 258.296,486.5658 258.205,486.1638 L258.21,475.1388 C258.3,475.0558 258.39,474.9728 258.48,474.8888 L258.48,487.3688 Z" id="Fill-10" fill="#FFFFFF"></path>
            <path d="M258.48,487.3688 C258.388,486.9678 258.296,486.5658 258.205,486.1638 L258.21,475.1388 C258.3,475.0558 258.39,474.9728 258.48,474.8888 L258.48,487.3688 Z" id="Stroke-12" stroke="#FFFFFF"></path>
            <path d="M258.2398,524.3288 C258.1958,524.0478 258.2688,523.8058 258.4798,523.6088 C258.3628,523.8368 258.7548,524.2338 258.2398,524.3288" id="Fill-14" fill="#FFFFFF"></path>
            <path d="M258.2398,524.3288 C258.1958,524.0478 258.2688,523.8058 258.4798,523.6088 C258.3628,523.8368 258.7548,524.2338 258.2398,524.3288 Z" id="Stroke-16" stroke="#FFFFFF"></path>
            <path d="M249.8853,51.1911 C250.5223,51.1911 251.1583,51.1921 251.7883,51.1941 C251.1523,50.7211 250.5193,50.9141 249.8853,51.1911" id="Fill-18" fill="#FFFFFF"></path>
            <path d="M249.8853,51.1911 C250.5223,51.1911 251.1583,51.1921 251.7883,51.1941 C251.1523,50.7211 250.5193,50.9141 249.8853,51.1911 Z" id="Stroke-20" stroke="#FFFFFF"></path>
            <path d="M258.2105,475.1383 L258.2045,486.1643 C254.5755,486.3223 250.9415,486.0783 247.3385,485.8453 C240.6425,485.4113 233.9455,484.7563 227.3155,483.6773 C221.5385,482.7373 215.7815,481.6583 210.0835,480.2903 C199.6935,477.7963 189.5215,474.6223 179.5855,470.6823 C154.8185,460.8623 132.4945,447.0873 112.6545,429.3053 C90.8995,409.8053 73.6365,386.9023 60.7865,360.6713 C56.2805,351.4723 52.4575,341.9923 49.2705,332.2583 C46.3655,323.3853 43.9765,314.3743 42.2715,305.1903 C41.6045,301.5953 40.8255,298.0113 40.3945,294.3873 C40.1195,292.0803 39.8475,289.7623 39.5835,287.4533 C39.1465,283.6373 38.8885,279.8073 38.7105,275.9843 C38.5895,273.3873 38.3845,270.7783 38.5135,268.1543 C38.6735,264.8863 38.6575,261.6013 38.5265,258.3303 C38.4275,255.8293 38.5525,253.3273 38.7145,250.8603 C39.0655,245.4843 39.5115,240.1073 40.1575,234.7503 C41.6975,221.9913 44.2885,209.4583 48.0105,197.1593 C50.4745,189.0193 53.4275,181.0633 56.8815,173.2913 C60.1085,166.0293 63.7285,158.9723 67.6965,152.0853 C72.3405,144.0253 77.5615,136.3523 83.1455,128.9323 C85.9405,125.2193 88.8975,121.6183 91.9495,118.1023 C95.5715,113.9313 99.3795,109.9343 103.1155,105.8703 C105.6045,103.1633 108.4005,100.8033 110.9725,98.1953 C113.2995,95.8343 115.9525,93.7963 118.4615,91.6143 C122.7605,87.8753 127.2755,84.4123 131.8945,81.0783 C137.1195,77.3053 142.5175,73.8013 148.0705,70.5263 C152.9765,67.6333 157.9485,64.8643 163.0795,62.4083 C172.3125,57.9883 181.7895,54.1703 191.5395,51.0213 C202.5605,47.4623 213.7655,44.6733 225.1845,42.7723 C231.8375,41.6653 238.5315,40.8313 245.2755,40.4793 C247.5735,40.3593 249.8705,40.2243 252.1735,40.0963 C253.6415,40.3343 255.1145,40.1593 256.5825,40.2013 C258.0275,40.2413 258.2765,40.4553 258.2815,41.8603 C258.2905,44.3273 258.2535,46.7963 258.2975,49.2633 C258.3175,50.3903 257.8535,50.8623 256.7415,50.8423 C255.3115,50.8153 253.8785,50.8493 252.4465,50.8573 C252.2265,50.9703 252.0045,51.0833 251.7885,51.1943 C251.1585,51.1923 250.5225,51.1913 249.8855,51.1913 C241.7075,51.7053 233.5685,52.5763 225.4875,53.9423 C194.2955,59.2133 165.8005,71.0133 139.9865,89.2973 C130.2155,96.2183 120.9995,103.8013 112.4245,112.1693 C96.2625,127.9423 83.0675,145.8853 72.8325,166.0123 C66.8805,177.7163 62.0875,189.8803 58.2735,202.4403 C57.9715,203.4373 58.1505,203.6183 59.1555,203.6163 C72.6745,203.5863 86.1935,203.5463 99.7115,203.6273 C103.6285,203.6513 103.8015,202.2053 103.8395,199.5523 C103.9385,192.7583 103.9145,185.9613 103.7505,179.1643 C103.5865,172.3373 105.3095,166.0963 110.2515,161.0993 C113.4305,157.8863 117.3375,156.3303 121.8725,156.8903 C124.6475,157.2323 127.1315,158.4703 129.3575,160.1733 C136.9365,165.9693 144.5005,171.7823 152.0865,177.5663 C157.9315,182.0213 163.8145,186.4263 169.6565,190.8853 C176.6305,196.2073 183.5675,201.5763 190.5425,206.8973 C195.3155,210.5383 200.1395,214.1153 204.9165,217.7513 C210.8265,222.2493 216.7055,226.7883 222.6105,231.2923 C226.7555,234.4543 230.9735,237.5213 235.0615,240.7543 C238.3705,243.3723 241.8855,245.7673 244.2225,249.4713 C246.2515,252.6873 247.3825,256.1613 247.9465,259.8643 C248.7075,264.8543 247.6965,269.5863 245.5705,274.0713 C243.9475,277.4923 241.4775,280.2883 238.4585,282.5803 C233.6115,286.2593 228.7575,289.9273 223.9055,293.5993 C218.9645,297.3403 214.0135,301.0673 209.0855,304.8253 C203.5555,309.0423 198.0575,313.3003 192.5265,317.5153 C182.1595,325.4163 171.7825,333.3053 161.4035,341.1903 C150.8995,349.1703 140.3875,357.1393 129.8795,365.1143 C127.7565,366.7243 125.3975,368.0183 122.8905,368.7373 C118.6725,369.9453 114.7215,368.8623 111.2855,366.1933 C107.0225,362.8803 105.0745,358.2753 104.4145,353.0653 C103.5235,346.0283 103.9145,338.9493 103.8315,331.8853 C103.8045,329.6463 103.8665,327.4053 103.8135,325.1663 C103.7665,323.2183 103.2635,322.6993 101.5255,322.6983 C87.2465,322.6893 72.9685,322.6933 58.6895,322.6963 C58.4545,322.6963 58.2205,322.7353 57.7785,322.7753 C71.2115,367.2923 96.4305,403.6693 133.1285,431.8413 C169.9125,460.0783 211.8975,474.0493 258.2105,475.1383" id="Fill-22" fill="#FFFFFF"></path>
        </g>
    </g>
</svg>