<svg id="Capa_1" data-name="Capa 1" xmlns="http://www.w3.org/2000/svg" viewBox="0 0 2035.25 306.12"><defs><style>.cls-1{fill:#fff;opacity:0.7;}.cls-2{opacity:0.35;font-size:73.49px;font-family:DolceVitaHeavy-Bold, Dolce Vita Heavy;}</style></defs><title>ICONOS GOOGLE</title><rect class="cls-1" x="25.52" y="30.05" width="1983.3" height="247.03" rx="36.33" ry="36.33"/><text class="cls-2" transform="translate(292.39 184.83)">BUSCAR DIRECCIÓN</text><g id="HZ8YMO.tif"><path d="M78.4,191V87.5a6.12,6.12,0,0,1,4.25-3.69h1.13a2.07,2.07,0,0,0,.38.18q21.33,5.13,42.67,10.23a6,6,0,0,0,2.62,0Q142,91.3,154.54,88.31q9.43-2.23,18.85-4.5h1.13a1.73,1.73,0,0,0,.37.19c14.58,3.51,29.15,7,43.75,10.49,2.4.57,4.14,1.68,4.94,4.06V202.05c-1.84,3.35-3.52,4.17-7,3.34-13-3.13-26.05-6.15-39-9.48-3.39-.87-6.36-.24-9.6.63,1.48,3,2.95,5.88,4.37,8.8,2.71,5.55,1.8,11.06-2.46,15a13.5,13.5,0,0,1-6.45,3H161.2a4.43,4.43,0,0,0-.66-.22,12.26,12.26,0,0,1-9.25-6.94c-1.45-2.86-2.86-5.74-4.3-8.61l-2.74-5.47c-4.68,1.1-9.25,2.25-13.86,3.22a10.21,10.21,0,0,1-4.3.08c-14.28-3.36-28.53-6.85-42.8-10.24C80.88,194.56,79.15,193.41,78.4,191ZM178.85,94.92c0,.48-.06.85-.06,1.22q0,44.44,0,88.88c0,1,.32,1.35,1.28,1.58,7.3,1.72,14.59,3.49,21.88,5.25l11.9,2.86V103.34Zm-90.68,0c0,.57-.07,1-.07,1.39q0,44.29,0,88.59c0,1.15.41,1.51,1.44,1.75,6.52,1.52,13,3.1,19.54,4.67l14.15,3.42c0-4.34,0-8.53,0-12.73a1.41,1.41,0,0,0-1.23-1.65,31.42,31.42,0,0,1-19.87-15.93c-5.76-10.92-5.46-21.89.72-32.54a31.23,31.23,0,0,1,19.07-14.62c1-.28,1.37-.68,1.31-1.74-.1-1.69,0-3.4,0-5.1v-7.08Zm42.9,30.75c-12.24-.32-22.88,9.89-23.23,22.32a23.12,23.12,0,1,0,46.22,1.39C154.49,136.47,144.26,126,131.07,125.67Zm1.82-9.83c14.9,1.92,25.42,9.49,29.53,24s-.85,26.58-12.57,36c.64,1.27,1.32,2.51,1.88,3.81a1.81,1.81,0,0,0,1.78,1.24,11.82,11.82,0,0,1,8.79,4.8c.45.59.85,1.23,1.29,1.86,1.34-.3,2.61-.67,3.91-.87s1.64-.7,1.64-2q-.07-44.07,0-88.14V94.86l-14.47,3.4c-6.89,1.62-13.77,3.22-20.65,4.87-.4.1-1,.54-1,.83C132.86,107.92,132.89,111.88,132.89,115.84Zm.06,78.9c2.6-.61,5.12-1.18,7.61-1.83.24-.06.41-.63.5-1,.36-1.36.31-3,1.08-4,1.65-2.27,1.17-4.18-.22-6.2-.24-.35-.33-.79-.59-1.12a1,1,0,0,0-.77-.37c-2.53.49-5,1-7.62,1.57Zm20.26-4.2a2.22,2.22,0,0,0-2.13,3.38c3,6.05,6,12.07,9,18.09a2.15,2.15,0,1,0,3.83-1.83c-3-6.09-6-12.16-9.1-18.19C154.46,191.29,153.57,190.86,153.21,190.55Z"/></g></svg>